<?xml version="1.0" encoding="UTF-8"?>
<svg version="1.1" xmlns="http://www.w3.org/2000/svg" width="25" height="25">
<path d="M0 0 C0.99 0 1.98 0 3 0 C3.99 2.31 4.98 4.62 6 7 C6.99 6.67 7.98 6.34 9 6 C10.66458673 5.90691456 12.33281997 5.87003815 14 5.875 C14.86625 5.87242187 15.7325 5.86984375 16.625 5.8671875 C19 6 19 6 22 7 C21.52231159 11.13996619 20.90409217 14.31875513 19 18 C19 19.32 19 20.64 19 22 C15.7 22 12.4 22 9 22 C9 20.35 9 18.7 9 17 C9.99 16.67 10.98 16.34 12 16 C11.38125 15.938125 10.7625 15.87625 10.125 15.8125 C9.42375 15.544375 8.7225 15.27625 8 15 C7.29788106 13.34795544 6.63028587 11.68076231 6 10 C5.01 9.67 4.02 9.34 3 9 C3 8.34 3 7.68 3 7 C2.01 7 1.02 7 0 7 C0 7.99 0 8.98 0 10 C-0.99 9.67 -1.98 9.34 -3 9 C-2.01 6.03 -1.02 3.06 0 0 Z M10 8 C10 8.33 10 8.66 10 9 C12.64 9 15.28 9 18 9 C18 8.67 18 8.34 18 8 C15.36 8 12.72 8 10 8 Z M8 9 C9 12 9 12 9 12 Z M19 9 C20 12 20 12 20 12 Z M11 10 C12 13 12 13 12 13 Z M13 10 C12.67 11.65 12.34 13.3 12 15 C13.32 15 14.64 15 16 15 C15.67 13.35 15.34 11.7 15 10 C14.34 10 13.68 10 13 10 Z M16 10 C17 13 17 13 17 13 Z " fill="#000000" transform="translate(3,1)"/>
<path d="M0 0 C3.3 0 6.6 0 10 0 C10 0.33 10 0.66 10 1 C6.7 1 3.4 1 0 1 C0 0.67 0 0.34 0 0 Z " fill="#000000" transform="translate(12,24)"/>
<path d="M0 0 C3.3 0 6.6 0 10 0 C10 0.33 10 0.66 10 1 C6.7 1 3.4 1 0 1 C0 0.67 0 0.34 0 0 Z " fill="#000000" transform="translate(12,5)"/>
<path d="M0 0 C0.66 0 1.32 0 2 0 C2 0.66 2 1.32 2 2 C1.34 2 0.68 2 0 2 C0 1.34 0 0.68 0 0 Z " fill="#000000" transform="translate(16,14)"/>
<path d="M0 0 C0.99 0.33 1.98 0.66 3 1 C2.01 1.33 1.02 1.66 0 2 C0 1.34 0 0.68 0 0 Z " fill="#010101" transform="translate(9,6)"/>
<path d="M0 0 C0.66 0.66 1.32 1.32 2 2 C1.34 2 0.68 2 0 2 C0 1.34 0 0.68 0 0 Z " fill="#010101" transform="translate(4,9)"/>
<path d="" fill="#010101" transform="translate(0,0)"/>
<path d="" fill="#000000" transform="translate(0,0)"/>
<path d="" fill="#000000" transform="translate(0,0)"/>
<path d="" fill="#000000" transform="translate(0,0)"/>
<path d="" fill="#000000" transform="translate(0,0)"/>
<path d="" fill="#010101" transform="translate(0,0)"/>
<path d="M0 0 C2 1 2 1 2 1 Z " fill="#010101" transform="translate(1,12)"/>
<path d="M0 0 C2 1 2 1 2 1 Z " fill="#000000" transform="translate(22,6)"/>
<path d="" fill="#010101" transform="translate(0,0)"/>
<path d="" fill="#010101" transform="translate(0,0)"/>
<path d="" fill="#010101" transform="translate(0,0)"/>
<path d="" fill="#000000" transform="translate(0,0)"/>
<path d="" fill="#000000" transform="translate(0,0)"/>
<path d="" fill="#000000" transform="translate(0,0)"/>
<path d="" fill="#000000" transform="translate(0,0)"/>
<path d="" fill="#000000" transform="translate(0,0)"/>
<path d="" fill="#000000" transform="translate(0,0)"/>
<path d="" fill="#000000" transform="translate(0,0)"/>
<path d="" fill="#010101" transform="translate(0,0)"/>
<path d="" fill="#010101" transform="translate(0,0)"/>
<path d="" fill="#010101" transform="translate(0,0)"/>
<path d="" fill="#010101" transform="translate(0,0)"/>
<path d="" fill="#010101" transform="translate(0,0)"/>
</svg>
