<?xml version="1.0" encoding="iso-8859-1"?>
<!-- Uploaded to: SVG Repo, www.svgrepo.com, Generator: SVG Repo Mixer Tools -->
<svg height="800px" width="800px" version="1.1" id="Layer_1" xmlns="http://www.w3.org/2000/svg" xmlns:xlink="http://www.w3.org/1999/xlink" 
	 viewBox="0 0 512 512" xml:space="preserve">
<g>
	<path style="fill:#64C37D;" d="M256,232.727c-12.833,0-23.273,10.44-23.273,23.273c0,12.833,10.44,23.273,23.273,23.273
		c12.833,0,23.273-10.44,23.273-23.273C279.273,243.167,268.833,232.727,256,232.727z"/>
	<path style="fill:#64C37D;" d="M232.727,387.879v-66.064c-27.088-9.607-46.545-35.475-46.545-65.815s19.458-56.207,46.545-65.815
		v-66.054v-23.273V77.585L23.271,77.593C10.42,77.594,0,88.013,0,100.866v69.801h23.273h23.273h23.273
		c12.853,0,23.273,10.42,23.273,23.273v124.121c0,12.853-10.42,23.273-23.273,23.273H46.545H23.273H0v69.818
		c0,12.853,10.42,23.273,23.273,23.273h209.455v-23.273V387.879z"/>
</g>
<path style="fill:#A4E276;" d="M488.726,77.576l-209.453,0.008v23.273v23.273v66.056c27.088,9.607,46.545,35.475,46.545,65.815
	s-19.458,56.207-46.545,65.815v66.064v23.273v23.273h209.455c12.853,0,23.273-10.42,23.273-23.273v-69.818h-23.273h-23.273h-23.273
	c-12.853,0-23.273-10.42-23.273-23.273V193.939c0-12.853,10.42-23.273,23.273-23.273h23.273h23.273H512v-69.818
	c0-6.173-2.451-12.093-6.817-16.457C500.818,80.027,494.898,77.576,488.726,77.576z"/>
<polygon style="fill:#64C37D;" points="46.545,294.788 46.545,217.212 23.273,217.212 0,217.212 0,294.788 23.273,294.788 "/>
<polygon style="fill:#A4E276;" points="465.455,217.212 465.455,294.788 488.727,294.788 512,294.788 512,217.212 488.727,217.212 
	"/>
<path style="fill:#DEDEE0;" d="M46.545,341.333h23.273c12.853,0,23.273-10.42,23.273-23.273V193.939
	c0-12.853-10.42-23.273-23.273-23.273H46.545H23.273H0v46.545h23.273h23.273v77.576H23.273H0v46.545h23.273H46.545z"/>
<g>
	<path style="fill:#FFFFFF;" d="M465.455,170.667h-23.273c-12.853,0-23.273,10.42-23.273,23.273v124.121
		c0,12.853,10.42,23.273,23.273,23.273h23.273h23.273H512v-46.545h-23.273h-23.273v-77.576h23.273H512v-46.545h-23.273H465.455z"/>
	<path style="fill:#FFFFFF;" d="M279.273,190.185v-66.056v-23.273V77.584l-46.545,0.002v0.003H256v155.139
		c12.833,0,23.273,10.44,23.273,23.273c0,12.833-10.44,23.273-23.273,23.273v155.152h23.273v-23.273v-23.273v-66.064
		c27.088-9.607,46.545-35.475,46.545-65.815S306.361,199.792,279.273,190.185z"/>
</g>
<path style="fill:#DEDEE0;" d="M232.727,256c0-12.833,10.44-23.273,23.273-23.273V77.588h-23.273v23.27v23.273v66.054
	c-27.088,9.607-46.545,35.475-46.545,65.815s19.458,56.208,46.545,65.815v66.064v23.273v23.273H256V279.273
	C243.167,279.273,232.727,268.833,232.727,256z"/>
</svg>