<?xml version="1.0" encoding="utf-8"?><!-- Uploaded to: SVG Repo, www.svgrepo.com, Generator: SVG Repo Mixer Tools -->
<svg width="800px" height="800px" viewBox="0 0 64 64" id="Layer_1" data-name="Layer 1" xmlns="http://www.w3.org/2000/svg"><defs><style>.cls-1{fill:none;stroke:#000000;stroke-linecap:round;stroke-linejoin:round;stroke-width:2px;}</style></defs><title>soccer, football, fifa, cup, trophy</title><path class="cls-1" d="M42.65,23.18c-.24,0-.49,0-.73,0a11.51,11.51,0,0,0-2.41.4"/><path class="cls-1" d="M53.3,29.68c0,.1.1.2.14.3a2.14,2.14,0,0,1,.09.2,1.69,1.69,0,0,1,.12.25c.07.15.13.3.19.45l0,.07.07.22.07.23,0,.07h0a.08.08,0,0,1,0,.06,9.24,9.24,0,0,1,.26.94c0,.1,0,.21.07.31.06.3.11.62.14.93,0,.1,0,.2,0,.29s0,.27,0,.4,0,.48,0,.73,0,.67,0,1a8.7,8.7,0,0,1-.12.95,11.89,11.89,0,0,1-5.76,8.39,9.29,9.29,0,0,1-1,.53l-.35.16,0,0a4.38,4.38,0,0,1-.46.18,11,11,0,0,1-1.46.44,10.67,10.67,0,0,1-2.21.3c-.17,0-.34,0-.51,0H42.2a12.25,12.25,0,0,1-2.09-.26h-.06c-.27-.06-.55-.13-.82-.22s-.47-.14-.69-.22a11.29,11.29,0,0,1-1.61-.73c-.23-.12-.46-.26-.68-.4h0c-.23-.15-.47-.31-.69-.47l-.63-.49c-.25-.21-.49-.43-.72-.66s-.21-.21-.31-.32L33.62,43c-.2-.22-.38-.46-.57-.7a.68.68,0,0,1-.1-.17,10.43,10.43,0,0,1-1.11-1.82l0-.06a2.93,2.93,0,0,1-.13-.28l-.12-.29,0,0-.2-.52c-.07-.21-.14-.42-.2-.63s-.08-.31-.12-.46-.07-.31-.11-.46-.07-.35-.09-.52a.31.31,0,0,1,0-.09h0"/><path class="cls-1" d="M41.56,30.28l1.25,2.18a1.12,1.12,0,0,1,0,1.14l-1.55,2.7a1.16,1.16,0,0,1-1,.57l-2.64,0h-.49a1.15,1.15,0,0,1-1-.54s0,0,0,0L35.37,35"/><path class="cls-1" d="M42.8,40.12l-1.54-2.68a1.14,1.14,0,0,1,0-1.14l1.55-2.69a1.15,1.15,0,0,1,1-.57l3.12,0a1.15,1.15,0,0,1,1,.56l1.54,2.59a1.13,1.13,0,0,1,0,1.17l-1.62,2.68a1.16,1.16,0,0,1-.94.56q-1.53.06-3.07.08A1.15,1.15,0,0,1,42.8,40.12Z"/><path class="cls-1" d="M48.7,45.47a11.84,11.84,0,0,1-5.54,1.64L42,46.48h0l-.75-1.37a1.15,1.15,0,0,1,0-1.11q.75-1.35,1.53-2.72a1.14,1.14,0,0,1,1-.58q1.85,0,3.71-.1h0l.51.91.5.9c.33.59.65,1.19,1,1.77"/><path class="cls-1" d="M35.37,35l.78,1.31s0,0,0,0a1.16,1.16,0,0,1,0,1.07l0,0h0c-.42.73-.85,1.46-1.26,2.17l-.23.42h0a0,0,0,0,1,0,0l-.26.45h0l-1.86-.12a1.18,1.18,0,0,1-1-.69l0,0-.2-.52c-.07-.21-.14-.42-.2-.63s-.08-.31-.12-.46-.07-.31-.11-.46-.07-.35-.09-.52,0-.07,0-.09"/><path class="cls-1" d="M41.29,45.13v0"/><path class="cls-1" d="M40.05,46.83a11.76,11.76,0,0,1-3.8-1.57h0"/><path class="cls-1" d="M49.33,28.84a1.13,1.13,0,0,1,0,1.16l-1.44,2.49a1.15,1.15,0,0,1-1,.57l-3.1,0a1.15,1.15,0,0,1-1-.57"/><path class="cls-1" d="M43.75,25.37a1.14,1.14,0,0,1-1-.59L42,23.42l-.12-.23.74,0a12,12,0,0,1,3,.39"/><path class="cls-1" d="M54.22,36.69c-1.47,0-2.95.08-4.42.11h0L48.69,35l-.78-1.31a1.15,1.15,0,0,1,0-1.16l1.26-2.17.51-.9h0q1.48.09,3,.21a1.17,1.17,0,0,1,1,.7,11.82,11.82,0,0,1,1,4.82c0,.34,0,.66,0,1"/><path class="cls-1" d="M49.68,29.42h0l-1.17-1.93"/><path class="cls-1" d="M49.53,25.35l.21.15A11.92,11.92,0,0,1,52,27.66"/><path class="cls-1" d="M49.47,44.18h0l-1-1.77-.5-.9-.19-.33a1.15,1.15,0,0,1,0-1.15l1.95-3.23h0c1.48,0,3-.07,4.42-.11"/><path class="cls-1" d="M51.77,27.39A13.48,13.48,0,0,1,54,31.48"/><path class="cls-1" d="M22.61,32.88a9.46,9.46,0,0,0,4.88,1.35A8.07,8.07,0,0,0,29,34.1a7.86,7.86,0,0,0,1.74-.44h0a1,1,0,0,0,.23-.09,6.61,6.61,0,0,0,.64-.28l.22-.11.11-.06.06,0a5.82,5.82,0,0,0,.62-.38l.35-.25h0l.07-.06.19-.14v0a6.15,6.15,0,0,0,.54-.45,3.7,3.7,0,0,0,.29-.25l.16-.16.36-.39.08-.09,0,0c.1-.13.2-.24.3-.37s.2-.27.29-.4a.47.47,0,0,0,.08-.12,3.59,3.59,0,0,0,.25-.4,7.55,7.55,0,0,0,.51-1A9.36,9.36,0,0,0,37,25.2V22.11a1.4,1.4,0,0,0-1.38-1.39H18.94"/><path class="cls-1" d="M34.19,49.69a6.68,6.68,0,1,0-13.37,0h8.93"/><path class="cls-1" d="M31.32,35.79a1.55,1.55,0,0,1-.5,1.14h0l0,0-.16.13a1.59,1.59,0,0,1-.89.27H25.25a1.57,1.57,0,1,1,0-3.14H27.5"/><line class="cls-1" x1="25.93" y1="43.04" x2="25.93" y2="37.36"/><path class="cls-1" d="M39.5,28a3.47,3.47,0,0,0,.3-.39A3.37,3.37,0,0,0,37,22.44"/><line class="cls-1" x1="39.54" y1="16.6" x2="37.59" y2="18.55"/><line class="cls-1" x1="27.28" y1="15.88" x2="27.28" y2="18.05"/><line class="cls-1" x1="15.1" y1="16.97" x2="16.86" y2="18.73"/><circle cx="29.04" cy="40.2" r="0.92"/><circle cx="31.86" cy="49.76" r="0.92"/><line class="cls-1" x1="7.94" y1="34.35" x2="13.31" y2="28.45"/><path class="cls-1" d="M16.66,35.21l-3.25,4.21-.46-.86c-1.36-2.54-.83-2.64-3.52-3.65l-1.49-.56"/><line class="cls-1" x1="15.19" y1="31.3" x2="13" y2="33.9"/><path class="cls-1" d="M24.2,29.75a6,6,0,0,0-.14-6.3"/><path class="cls-1" d="M22.19,31.8a5.93,5.93,0,0,1-3.15.9,6,6,0,0,1-6-6,6,6,0,0,1,6-6,6,6,0,0,1,5.16,9"/><path class="cls-1" d="M13.31,28.45a5.91,5.91,0,0,0,1.88,2.85"/><path class="cls-1" d="M24.2,29.75a6,6,0,0,0,.83-3"/><polyline class="cls-1" points="17.66 26.07 19.37 24.47 19.37 28.93"/></svg>