<?xml version="1.0" encoding="iso-8859-1"?>
<!-- Uploaded to: SVG Repo, www.svgrepo.com, Generator: SVG Repo Mixer Tools -->
<svg fill="#000000" version="1.1" id="Capa_1" xmlns="http://www.w3.org/2000/svg" xmlns:xlink="http://www.w3.org/1999/xlink" 
	 viewBox="0 0 512 512" xml:space="preserve">
<g>
	<g>
		<path d="M479.608,328.139V48.107H32.392v280.033H0v15.673h512v-15.673H479.608z M363.081,176.059l20.917-20.917l20.917,20.917
			l-20.917,20.917L363.081,176.059z M372.915,208.059l-20.917,20.916l-20.916-20.916l20.916-20.917L372.915,208.059z
			 M351.998,164.976l-20.917-20.917l20.917-20.917l20.917,20.917L351.998,164.976z M340.917,176.059l-20.916,20.917l-20.918-20.917
			L320,155.142L340.917,176.059z M308.917,208.059L288,228.975l-20.917-20.917L288,187.142L308.917,208.059z M287.999,164.975
			l-20.917-20.917l20.917-20.917l20.917,20.917L287.999,164.975z M276.917,176.059L256,196.975l-20.917-20.917L256,155.142
			L276.917,176.059z M244.918,208.059l-20.917,20.917l-20.917-20.917l20.917-20.917L244.918,208.059z M224,164.975l-20.917-20.917
			L224,123.142l20.917,20.917L224,164.975z M212.918,176.059l-20.917,20.917l-20.917-20.917l20.917-20.917L212.918,176.059z
			 M180.918,208.059l-20.917,20.917l-20.917-20.916l20.917-20.917L180.918,208.059z M160.001,164.975l-20.917-20.917l20.917-20.917
			l20.917,20.917L160.001,164.975z M148.918,176.06l-20.917,20.917l-20.917-20.916l20.918-20.918L148.918,176.06z M96.002,164.976
			L75.085,144.06l20.917-20.917l20.917,20.917L96.002,164.976z M116.918,208.059l-20.916,20.917L75.085,208.06l20.917-20.917
			L116.918,208.059z M116.919,272.057l-20.917,20.917l-20.917-20.917l20.917-20.917L116.919,272.057z M107.084,240.06l20.917-20.918
			l20.917,20.917l-20.917,20.917L107.084,240.06z M160.001,251.141l20.917,20.917l-20.917,20.917l-20.917-20.917L160.001,251.141z
			 M171.084,240.059l20.917-20.917l20.917,20.917l-20.917,20.917L171.084,240.059z M224.001,251.141l20.917,20.917l-20.917,20.917
			l-20.917-20.917L224.001,251.141z M235.083,240.057L256,219.142l20.917,20.917L256,260.974L235.083,240.057z M288,251.141
			l20.917,20.917L288,292.974l-20.917-20.917L288,251.141z M299.082,240.059l20.917-20.917l20.917,20.917l-20.917,20.917
			L299.082,240.059z M351.999,251.141l20.916,20.917l-20.917,20.917l-20.916-20.917L351.999,251.141z M363.082,240.057
			l20.916-20.916l20.917,20.917l-20.917,20.916L363.082,240.057z M415.998,251.141l20.917,20.917l-20.917,20.917l-20.917-20.917
			L415.998,251.141z M415.997,228.974l-20.916-20.916l20.916-20.917l20.917,20.917L415.997,228.974z M395.081,144.06l20.917-20.917
			l20.917,20.917l-20.917,20.916L395.081,144.06z M415.998,100.976l-13.164-13.164h26.326L415.998,100.976z M404.914,112.06
			l-20.916,20.917l-20.917-20.917l20.917-20.917L404.914,112.06z M351.999,100.976l-13.164-13.164h26.327L351.999,100.976z
			 M340.916,112.058l-20.917,20.917l-20.917-20.917l20.917-20.917L340.916,112.058z M287.999,100.976l-13.163-13.164h26.326
			L287.999,100.976z M276.917,112.06L256,132.975l-20.917-20.917L256,91.143L276.917,112.06z M224,100.976l-13.163-13.164h26.326
			L224,100.976z M212.918,112.058l-20.917,20.917l-20.917-20.917l20.917-20.917L212.918,112.058z M160.001,100.976l-13.164-13.164
			h26.327L160.001,100.976z M148.918,112.06l-20.916,20.917l-20.917-20.917l20.916-20.917L148.918,112.06z M96.002,100.976
			L82.838,87.813h26.326L96.002,100.976z M84.919,112.06L72.098,124.88V99.239L84.919,112.06z M84.919,176.06L72.098,188.88v-25.642
			L84.919,176.06z M84.919,240.059l-12.821,12.821v-25.642L84.919,240.059z M84.919,304.057l-12.821,12.821v-25.642L84.919,304.057z
			 M83.002,328.139l13-12.999l12.999,12.999H83.002z M107.084,304.057l20.917-20.917l20.917,20.917l-20.917,20.917L107.084,304.057z
			 M147.002,328.139l12.999-13l13,13H147.002z M171.085,304.057l20.916-20.917l20.917,20.917l-20.916,20.917L171.085,304.057z
			 M211,328.139l13-12.999l12.999,12.999H211z M235.083,304.056L256,283.141l20.917,20.917L256,324.973L235.083,304.056z
			 M275,328.139l13-12.999l12.999,12.999H275z M299.082,304.057l20.917-20.917l20.917,20.917l-20.917,20.917L299.082,304.057z
			 M339,328.139l12.999-13l13,13H339z M363.081,304.057l20.917-20.917l20.917,20.917l-20.917,20.917L363.081,304.057z
			 M402.998,328.139l13-12.999l12.999,12.999H402.998z M439.902,316.878l-12.821-12.821l12.821-12.821V316.878z M439.902,252.879
			l-12.821-12.821l12.821-12.821V252.879z M439.902,188.88l-12.821-12.821l12.821-12.821V188.88z M439.902,124.88l-12.821-12.822
			l12.821-12.82V124.88z M463.935,328.139h-8.359v-256H56.424v256h-8.359V63.78h415.869V328.139z"/>
	</g>
</g>
<g>
	<g>
		<path d="M423.998,352.22c-30.788,0-55.836,25.048-55.836,55.836c0,30.789,25.048,55.837,55.836,55.837
			s55.835-25.048,55.835-55.837C479.834,377.268,454.786,352.22,423.998,352.22z M463.384,415.911
			c-1.253,6.291-3.983,12.052-7.809,16.917v-0.199h-15.673v12.299c-4.881,2.113-10.257,3.29-15.904,3.29
			c-5.874,0-11.453-1.278-16.487-3.555v-12.035h-15.247c-3.743-4.822-6.417-10.513-7.652-16.718h7.225v-15.673h-7.232
			c1.229-6.205,3.894-11.894,7.63-16.718h15.275v-12.071c5.034-2.277,10.613-3.555,16.487-3.555c5.648,0,11.024,1.178,15.904,3.29
			v12.335h15.673v-0.235c3.832,4.874,6.565,10.649,7.815,16.953h-7.815v15.673H463.384z"/>
	</g>
</g>
<g>
	<g>
		<rect x="415.869" y="400.237" width="15.673" height="15.673"/>
	</g>
</g>
<g>
	<g>
		<rect x="80.457" y="367.845" width="167.184" height="15.673"/>
	</g>
</g>
<g>
	<g>
		<rect x="264.359" y="367.845" width="55.38" height="15.673"/>
	</g>
</g>
<g>
	<g>
		<rect x="175.543" y="400.237" width="104.49" height="15.673"/>
	</g>
</g>
<g>
	<g>
		<rect x="280.033" y="432.629" width="32.392" height="15.673"/>
	</g>
</g>
<g>
	<g>
		<rect x="295.706" y="400.237" width="56.424" height="15.673"/>
	</g>
</g>
</svg>