<?xml version="1.0" encoding="iso-8859-1"?>
<!-- Uploaded to: SVG Repo, www.svgrepo.com, Generator: SVG Repo Mixer Tools -->
<!DOCTYPE svg PUBLIC "-//W3C//DTD SVG 1.1//EN" "http://www.w3.org/Graphics/SVG/1.1/DTD/svg11.dtd">
<svg version="1.1" id="Capa_1" xmlns="http://www.w3.org/2000/svg" xmlns:xlink="http://www.w3.org/1999/xlink" 
	 viewBox="0 0 512 512" xml:space="preserve">
<g>
	<g>
		<rect x="96" y="160" style="fill:#FFFFFF;" width="48" height="48"/>
		<rect x="96" y="240" style="fill:#FFFFFF;" width="48" height="40"/>
		<rect x="176" y="160" style="fill:#FFFFFF;" width="48" height="48"/>
		<path style="fill:#FFFFFF;" d="M416,384V160h-80v48h32c8.836,0,16,7.164,16,16s-7.164,16-16,16H256v8.375c0,8.836-7.164,16-16,16
			s-16-7.164-16-16V240h-48v40h24c8.836,0,16,7.164,16,16s-7.164,16-16,16h-24v16.375c0,8.836-7.164,16-16,16s-16-7.164-16-16V312
			H96v72h130.508c-1.578-6-2.508-12.91-2.508-19.813c0-46.316,37.68-83.813,84-83.813s84,37.496,84,83.813
			c0,6.902-0.93,13.813-2.508,19.813H416z"/>
		<polygon style="fill:#FFFFFF;" points="480,119 448,151 448,384 480,384 		"/>
		<polygon style="fill:#FFFFFF;" points="32,384 64,384 64,151 32,119 		"/>
		<polygon style="fill:#FFFFFF;" points="457.375,96 54.625,96 86.625,128 425.375,128 		"/>
		<rect x="256" y="160" style="fill:#FFFFFF;" width="48" height="48"/>
	</g>
	<path style="fill:#F69348;" d="M360,364.375c0,28.722-23.278,52-52,52s-52-23.278-52-52s23.278-52,52-52S360,335.653,360,364.375z"
		/>
	<path style="fill:#003B54;" d="M496,64H16C7.164,64,0,71.539,0,80.375v320C0,409.211,7.164,416,16,416h226.156
		c15.398,20,39.162,32,65.844,32s50.445-12,65.844-32H496c8.836,0,16-6.789,16-15.625v-320C512,71.539,504.836,64,496,64z
		 M425.375,128H86.625l-32-32h402.75L425.375,128z M256,208v-48h48v48H256z M96,240h48v40H96V240z M96,208v-48h48v48H96z M176,160
		h48v48h-48V160z M32,119l32,32v233H32V119z M308,416.375c-28.672,0-52-23.328-52-52s23.328-52,52-52s52,23.328,52,52
		S336.672,416.375,308,416.375z M308,280.375c-46.32,0-84,37.496-84,83.813c0,6.902,0.93,13.813,2.508,19.813H96v-72h48v16.375
		c0,8.836,7.164,16,16,16s16-7.164,16-16V312h24c8.836,0,16-7.164,16-16s-7.164-16-16-16h-24v-40h48v8.375c0,8.836,7.164,16,16,16
		s16-7.164,16-16V240h112c8.836,0,16-7.164,16-16s-7.164-16-16-16h-32v-48h80v224h-26.508c1.578-6,2.508-12.91,2.508-19.813
		C392,317.871,354.32,280.375,308,280.375z M448,384V151l32-32v265H448z"/>
</g>
</svg>