<?xml version="1.0" encoding="UTF-8"?>
<svg version="1.1" xmlns="http://www.w3.org/2000/svg" width="512" height="512">
<path d="M0 0 C1.24895378 -0.00657338 1.24895378 -0.00657338 2.52313894 -0.01327956 C5.32348792 -0.02667331 8.12380542 -0.03284777 10.92417908 -0.03897095 C12.9280766 -0.04687159 14.93197271 -0.05514052 16.93586731 -0.06375122 C23.5269281 -0.08998029 30.11799526 -0.10528185 36.70909119 -0.11953735 C38.97822511 -0.12489707 41.247359 -0.13027458 43.51649284 -0.13566971 C52.95707301 -0.1573016 62.39765147 -0.17603737 71.83825016 -0.1872921 C85.36491849 -0.20352411 98.89129923 -0.23668047 112.41785914 -0.29369295 C121.92967452 -0.33241539 131.44141306 -0.35192766 140.95330518 -0.35721266 C146.63338947 -0.36086353 152.31316708 -0.37285672 157.99316597 -0.4053154 C163.34073304 -0.43543549 168.68780851 -0.44169359 174.03544235 -0.42993164 C175.99374539 -0.42971122 177.95207149 -0.43798974 179.91029549 -0.45558548 C199.60639874 -0.62287147 199.60639874 -0.62287147 206.92393494 5.15390015 C214.44316513 12.85733523 216.39499797 21.7577444 216.32237244 32.26327515 C216.3266777 33.6580307 216.3266777 33.6580307 216.33106995 35.08096313 C216.33309759 37.0305747 216.32765948 38.98020722 216.31504822 40.92977905 C216.29890246 43.90989441 216.31497872 46.88866875 216.33409119 49.8687439 C216.33210995 51.77109063 216.32826876 53.67343652 216.32237244 55.57577515 C216.32844513 56.46230774 216.33451782 57.34884033 216.34077454 58.26223755 C216.28671261 63.01565689 216.08150424 66.32961596 212.92393494 70.15390015 C210.73643494 70.96640015 210.73643494 70.96640015 208.92393494 71.15390015 C208.98399572 72.6133772 209.07280383 74.07169287 209.17393494 75.52890015 C209.22034119 76.34100952 209.26674744 77.1531189 209.31455994 77.98983765 C209.51565369 78.70397827 209.71674744 79.4181189 209.92393494 80.15390015 C211.23526371 80.86287058 212.57087598 81.52823755 213.92393494 82.15390015 C216.14740825 85.4939452 216.16702846 88.35289438 216.15098572 92.29940796 C216.15075912 94.1608847 216.15075912 94.1608847 216.15052795 96.05996704 C216.14031555 97.40898805 216.12988357 98.75800741 216.11924744 100.10702515 C216.11551543 101.49136145 216.11266934 102.87570039 216.110672 104.26004028 C216.10305028 107.89656925 216.08341449 111.53293745 216.06126404 115.16940308 C216.04077403 118.88296331 216.03166355 122.59654963 216.02159119 126.31015015 C216.00016709 133.59147329 215.96604895 140.87266416 215.92393494 148.15390015 C216.67988953 148.44128052 217.43584412 148.72866089 218.21470642 149.02474976 C221.76008561 150.50239045 224.82234637 152.56945625 227.98643494 154.71640015 C228.64546814 155.16040161 229.30450134 155.60440308 229.98350525 156.06185913 C242.8413558 164.7925942 254.98708109 174.43524734 266.46299744 184.9156189 C268.08815743 186.3937406 269.728674 187.85517276 271.38487244 189.2984314 C282.24396098 198.80441584 291.45876526 209.50504672 299.92393494 221.15390015 C300.32966736 221.7032019 300.73539978 222.25250366 301.15342712 222.81845093 C312.80675416 238.74589672 321.40025273 256.94374282 325.92393494 276.15390015 C326.15467712 277.08460327 326.38541931 278.0153064 326.62315369 278.97421265 C331.9459257 303.66281476 327.10405117 327.65805564 319.63096619 351.3062439 C306.83022921 391.88042103 303.07563875 437.09305169 307.44346619 479.3140564 C309.47195653 499.04381423 309.47195653 499.04381423 303.92393494 506.15390015 C299.82422853 510.04862123 296.09912254 512.39689561 290.39665222 512.42132568 C289.49398621 512.42985565 288.59132019 512.43838562 287.66130066 512.44717407 C286.18690521 512.44581451 286.18690521 512.44581451 284.682724 512.44442749 C283.12104492 512.45450333 283.12104492 512.45450333 281.52781677 512.46478271 C278.08168275 512.48379937 274.63574318 512.48768904 271.18955994 512.48983765 C268.7930544 512.49626391 266.39654965 512.50299214 264.00004578 512.51000977 C258.9730294 512.52199235 253.94608178 512.52568966 248.91905212 512.52450562 C242.48521619 512.52430258 236.05182273 512.55158514 229.61809158 512.58605003 C224.66632574 512.60831749 219.71466631 512.61234316 214.76285553 512.61128616 C212.3914462 512.6136431 210.02003399 512.62247177 207.64867401 512.6379509 C204.32637839 512.65760326 201.00503582 512.65177458 197.682724 512.63973999 C196.70789063 512.650979 195.73305725 512.66221802 194.72868347 512.67379761 C187.83101359 512.61048485 182.15933752 511.28626443 177.08409119 506.37265015 C176.72186462 505.80546265 176.35963806 505.23827515 175.98643494 504.65390015 C175.6061615 504.08671265 175.22588806 503.51952515 174.83409119 502.93515015 C173.11337189 499.56756216 172.77267806 496.17101756 172.52940369 492.43515015 C170.72020433 467.15495795 165.312066 445.86944374 154.04893494 423.15390015 C149.67067291 414.29667127 145.98696461 405.40417537 142.86143494 396.02890015 C142.50388123 394.96413452 142.14632751 393.8993689 141.77793884 392.80233765 C139.91454666 387.00312384 138.4625412 381.22106973 137.3089447 375.24813843 C137.17415962 374.56199966 137.03937454 373.8758609 136.90050507 373.16893005 C136.57256896 371.49772505 136.24790669 369.82587818 135.92393494 368.15390015 C134.84001685 368.15170031 134.84001685 368.15170031 133.73420143 368.14945602 C116.12219653 368.11234623 98.51040101 368.05327637 80.89855385 367.96999741 C72.38145776 367.93024895 63.86445352 367.89783522 55.34727478 367.88290405 C47.92057754 367.86986573 40.49408273 367.84284567 33.06749952 367.79928708 C29.13795897 367.77672104 25.20866764 367.76098653 21.27905655 367.7620163 C17.57381252 367.76276581 13.86911836 367.74469971 10.16401672 367.71273232 C8.16926386 367.70026676 6.17441842 367.70727462 4.17964172 367.71504211 C-4.25866953 367.61790091 -11.68913257 366.61351357 -18.47840881 361.2593689 C-24.67689074 353.51520955 -27.19732718 346.50953162 -27.20469952 336.47442913 C-27.20792396 335.36031334 -27.21114841 334.24619754 -27.21447057 333.09832066 C-27.21292196 331.88461523 -27.21137336 330.6709098 -27.20977783 329.42042542 C-27.21204339 328.12307931 -27.21430894 326.8257332 -27.21664315 325.48907357 C-27.2227534 321.89429833 -27.22262847 318.29954636 -27.22144878 314.70476711 C-27.22124458 310.82531494 -27.2267654 306.94587021 -27.23150635 303.06642151 C-27.23980919 295.46818787 -27.24256102 287.86996198 -27.24311873 280.27172419 C-27.24359406 274.09488341 -27.24564966 267.91804519 -27.24881935 261.74120522 C-27.2576249 244.22490974 -27.26223888 226.7086204 -27.26148888 209.19232269 C-27.26144892 208.24821503 -27.26140896 207.30410737 -27.2613678 206.33139038 C-27.26132692 205.38612869 -27.26128604 204.44086699 -27.26124392 203.466961 C-27.26083747 188.14774428 -27.27040698 172.82855213 -27.28450616 157.50934251 C-27.29887218 141.7759447 -27.30577622 126.04255887 -27.30491239 110.30915433 C-27.3045805 101.47755318 -27.30732411 92.6459778 -27.31809044 83.81438255 C-27.32719839 76.29502351 -27.32936826 68.77570192 -27.32258102 61.25633975 C-27.31931732 57.42132724 -27.31925371 53.58638658 -27.32793427 49.75138092 C-27.33725585 45.59030824 -27.33101932 41.42940174 -27.32330322 37.26832581 C-27.32844679 36.06131254 -27.33359035 34.85429927 -27.33888978 33.61070985 C-27.29598571 23.14367759 -26.24799009 14.2517411 -19.07606506 6.15390015 C-12.95533715 1.29434301 -7.7426901 0.00492783 0 0 Z " fill="#F15048" transform="translate(105.07606506347656,-0.153900146484375)"/>
<path d="M0 0 C4.40096165 1.65947863 7.97364548 3.91906562 11.75 6.6875 C12.37197266 7.13883301 12.99394531 7.59016602 13.63476562 8.05517578 C15.42888172 9.36257035 17.21601704 10.67882298 19 12 C19.79921875 12.59167969 20.5984375 13.18335938 21.421875 13.79296875 C23.64964618 15.48892237 25.82947692 17.23129276 28 19 C28.97582031 19.79019531 29.95164062 20.58039063 30.95703125 21.39453125 C38.46697223 27.59498923 45.46909571 34.26112334 52.375 41.125 C53.62277222 42.35899536 53.62277222 42.35899536 54.89575195 43.61791992 C60.36040622 49.10991113 65.29044697 54.85105207 70 61 C70.46696289 61.60231445 70.93392578 62.20462891 71.41503906 62.82519531 C88.23533916 84.79646339 98.14714842 109.52634864 98.3125 137.3125 C98.32095947 138.63640747 98.32095947 138.63640747 98.32958984 139.98706055 C98.20612996 151.2417893 95.74423804 161.48311952 92.25 172.125 C86.26931112 191.0785566 82.09021294 210.10681451 79.1875 229.75 C79.08208893 230.45970947 78.97667786 231.16941895 78.86807251 231.90063477 C76.63722078 247.10779513 75.83247534 262.13096258 75.86962891 277.48681641 C75.87500608 280.12798766 75.86964079 282.76899 75.86328125 285.41015625 C75.86035402 293.45761941 75.98566439 301.39951252 76.77294922 309.41601562 C77.13244264 313.50728268 77.14606571 317.58319661 77.125 321.6875 C77.12886719 322.48349609 77.13273438 323.27949219 77.13671875 324.09960938 C77.12685789 329.87314211 77.12685789 329.87314211 76 331 C72.9110233 331.11133758 69.84420065 331.15740591 66.75439453 331.16113281 C65.78371033 331.16609772 64.81302612 331.17106262 63.81292725 331.17617798 C60.58621525 331.19084124 57.35955241 331.19760847 54.1328125 331.203125 C51.89940387 331.20887297 49.66599526 331.21463074 47.43258667 331.22039795 C42.74330413 331.23091977 38.05403879 331.23675471 33.36474609 331.24023438 C27.34630672 331.24572194 21.32809326 331.26975075 15.30972481 331.29820633 C10.69444101 331.31679969 6.07921199 331.32203654 1.46389389 331.32357025 C-0.75534424 331.32660472 -2.97458124 331.33465979 -5.19378281 331.34775543 C-8.2945668 331.36474711 -11.39479424 331.36295248 -14.49560547 331.35644531 C-15.41832245 331.3656601 -16.34103943 331.37487488 -17.29171753 331.3843689 C-18.13581177 331.37879974 -18.97990601 331.37323059 -19.84957886 331.36749268 C-20.58294905 331.36895924 -21.31631924 331.3704258 -22.07191277 331.3719368 C-24.60452559 330.88338426 -25.48166025 330.06263039 -27 328 C-27.2588951 325.07990416 -27.36170329 322.2971633 -27.375 319.375 C-28.17372102 292.79737481 -37.02897789 269.85984519 -48.62695312 246.32543945 C-54.96580173 233.27028526 -63 215.84248912 -63 201 C-59.62618193 200.76626893 -56.25444999 200.62516481 -52.875 200.5 C-51.92367187 200.43296875 -50.97234375 200.3659375 -49.9921875 200.296875 C-43.03621267 200.10365348 -43.03621267 200.10365348 -39.98144531 202.74609375 C-36 207.92361111 -36 207.92361111 -36 211 C-33.11788698 211.96070434 -31.30149956 212.10581883 -28.3125 212.0625 C-27.50425781 212.05347656 -26.69601562 212.04445313 -25.86328125 212.03515625 C-25.24839844 212.02355469 -24.63351562 212.01195312 -24 212 C-22.86948141 208.00550097 -22.34073404 205.46770889 -24.0703125 201.6171875 C-25.94266037 198.65942057 -27.9430909 195.83297163 -30 193 C-30.89666182 191.72936541 -31.79106992 190.45713837 -32.68359375 189.18359375 C-34.69590723 186.31712792 -36.71988456 183.4593492 -38.75 180.60546875 C-42.09953567 175.88023093 -45.36637171 171.10069831 -48.625 166.3125 C-52.34244137 160.85628185 -56.08455853 155.42401319 -59.9375 150.0625 C-64.08397072 144.28591831 -68.21196411 138.496815 -72.3125 132.6875 C-72.8995874 131.8632251 -73.4866748 131.0389502 -74.09155273 130.18969727 C-81.53551219 119.61546833 -85.7542303 112.37778877 -84 99 C-81.45405321 90.45369403 -76.31910666 85.591464 -68.875 81.125 C-62.04366269 78.55555556 -53.68613617 78.93701589 -47 81.6875 C-36.23610781 86.79614415 -28.66590894 100.813994 -22.3125 110.5234375 C-19.38009784 114.97250781 -16.30988167 119.32561124 -13.25 123.6875 C-12.64663818 124.54770752 -12.04327637 125.40791504 -11.42163086 126.29418945 C-7.0763195 132.48117615 -2.71395034 138.6560738 1.65771484 144.82446289 C4.12875788 148.31882113 6.57398094 151.82800301 8.98046875 155.3671875 C9.46684814 156.08165039 9.95322754 156.79611328 10.4543457 157.53222656 C11.36431092 158.87270118 12.27073668 160.21558953 13.17260742 161.56152344 C15.36141644 164.78713672 17.64194765 167.91920678 20.0859375 170.95703125 C20.55306152 171.5394458 21.02018555 172.12186035 21.50146484 172.72192383 C23.14738974 174.40016194 23.14738974 174.40016194 26.75 174.0625 C30.04510298 173.25648111 30.04510298 173.25648111 32 171 C32.92023352 165.1669069 31.21726279 162.09178578 27.98681641 157.49194336 C27.41366699 156.71085205 26.84051758 155.92976074 26.25 155.125 C25.66524902 154.3007251 25.08049805 153.4764502 24.47802734 152.62719727 C23.26334446 150.91764964 22.04174792 149.21299448 20.81347656 147.51318359 C18.56005646 144.3903098 16.34783914 141.23960621 14.13574219 138.08740234 C12.71338039 136.06327209 11.28393892 134.04439482 9.8515625 132.02734375 C9.42759469 131.41587179 9.00362688 130.80439983 8.56681156 130.17439842 C7.49945082 128.69313062 6.37999396 127.24836235 5.21821499 125.83992958 C-0.00235019 119.21465993 -0.99061379 114.34317911 -0.79467773 106.03271484 C-0.79569992 104.88033325 -0.79672211 103.72795166 -0.79777527 102.54064941 C-0.7929307 98.76311284 -0.73863093 94.98804744 -0.68359375 91.2109375 C-0.6705266 88.57965413 -0.66056771 85.94835365 -0.65357971 83.31704712 C-0.63191297 77.11916633 -0.57459521 70.92216062 -0.50413328 64.72466338 C-0.42560734 57.66302136 -0.38733296 50.60133524 -0.35226524 43.53936458 C-0.27930221 29.02579381 -0.15635627 14.51290917 0 0 Z " fill="#F8D08A" transform="translate(320,166)"/>
<path d="M0 0 C1.24895378 -0.00657338 1.24895378 -0.00657338 2.52313894 -0.01327956 C5.32348792 -0.02667331 8.12380542 -0.03284777 10.92417908 -0.03897095 C12.9280766 -0.04687159 14.93197271 -0.05514052 16.93586731 -0.06375122 C23.5269281 -0.08998029 30.11799526 -0.10528185 36.70909119 -0.11953735 C38.97822511 -0.12489707 41.247359 -0.13027458 43.51649284 -0.13566971 C52.95707301 -0.1573016 62.39765147 -0.17603737 71.83825016 -0.1872921 C85.36491849 -0.20352411 98.89129923 -0.23668047 112.41785914 -0.29369295 C121.92967452 -0.33241539 131.44141306 -0.35192766 140.95330518 -0.35721266 C146.63338947 -0.36086353 152.31316708 -0.37285672 157.99316597 -0.4053154 C163.34073304 -0.43543549 168.68780851 -0.44169359 174.03544235 -0.42993164 C175.99374539 -0.42971122 177.95207149 -0.43798974 179.91029549 -0.45558548 C199.60639874 -0.62287147 199.60639874 -0.62287147 206.92393494 5.15390015 C214.44316513 12.85733523 216.39499797 21.7577444 216.32237244 32.26327515 C216.3266777 33.6580307 216.3266777 33.6580307 216.33106995 35.08096313 C216.33309759 37.0305747 216.32765948 38.98020722 216.31504822 40.92977905 C216.29890246 43.90989441 216.31497872 46.88866875 216.33409119 49.8687439 C216.33210995 51.77109063 216.32826876 53.67343652 216.32237244 55.57577515 C216.32844513 56.46230774 216.33451782 57.34884033 216.34077454 58.26223755 C216.28704385 62.98653208 216.13793009 66.40284296 212.92393494 70.15390015 C209.54893494 71.21640015 209.54893494 71.21640015 205.92393494 71.15390015 C202.49651865 69.06764675 201.19912457 67.97946904 199.92393494 64.15390015 C199.81593606 62.77916624 199.75822845 61.40009688 199.73448181 60.02133179 C199.70940552 58.77973045 199.70940552 58.77973045 199.68382263 57.51304626 C199.66345947 56.17704628 199.66345947 56.17704628 199.64268494 54.8140564 C199.62427551 53.89555405 199.60586609 52.9770517 199.5868988 52.03071594 C199.52814018 49.09267584 199.47533443 46.15457766 199.42393494 43.21640015 C199.3562281 39.35299731 199.2825344 35.48977683 199.20518494 31.6265564 C199.18482178 30.29359276 199.18482178 30.29359276 199.16404724 28.93370056 C199.13897095 27.68737099 199.13897095 27.68737099 199.11338806 26.41586304 C199.10085999 25.68766861 199.08833191 24.95947418 199.07542419 24.20921326 C198.86588753 21.09863381 198.86588753 21.09863381 197.92393494 18.15390015 C193.69742126 15.88573607 189.59651395 15.86944565 184.91539001 15.89320374 C184.11426946 15.88937819 183.3131489 15.88555264 182.48775196 15.88161117 C179.80625642 15.87130129 177.1249758 15.87526946 174.44346619 15.87924194 C172.51982932 15.87489441 170.5961942 15.86971112 168.67256165 15.86375427 C163.44952858 15.8503588 158.22656786 15.84978613 153.00352097 15.85231757 C148.64446968 15.85338673 144.28543307 15.84850544 139.92638493 15.84371215 C129.64463264 15.83261547 119.36291688 15.83218074 109.0811615 15.83822632 C98.46960144 15.84426978 87.85817385 15.83194598 77.24663639 15.81065625 C68.13824397 15.79305332 59.02989376 15.78703675 49.92148495 15.79029399 C44.48033992 15.79210879 39.03928943 15.78945092 33.59815979 15.77557945 C28.4829329 15.76302673 23.36791298 15.76492098 18.25268936 15.77799034 C16.3745428 15.7803611 14.49638179 15.77760363 12.6182518 15.76936722 C10.0560861 15.7589404 7.49462012 15.76696742 4.93247986 15.77967834 C3.81550327 15.76861692 3.81550327 15.76861692 2.67596149 15.75733203 C-1.74993205 15.80358289 -4.57061374 16.40805213 -8.07606506 19.15390015 C-10.3177192 22.51638135 -10.32704422 23.60765953 -10.33054066 27.53787041 C-10.33637285 28.66241343 -10.34220504 29.78695646 -10.34821397 30.94557655 C-10.34443465 32.18631278 -10.34065532 33.42704901 -10.33676147 34.7053833 C-10.34058702 36.01932261 -10.34441257 37.33326191 -10.34835404 38.68701756 C-10.35867516 42.34192302 -10.35644181 45.99673084 -10.35217345 49.65164447 C-10.34971363 53.59038535 -10.35871113 57.52910227 -10.36621094 61.46783447 C-10.37898105 69.18746712 -10.38074873 76.90706503 -10.37841067 84.62670647 C-10.37662983 90.89995675 -10.37837214 97.17319645 -10.38263512 103.44644547 C-10.38323031 104.3382617 -10.38382549 105.23007794 -10.38443872 106.1489189 C-10.38565043 107.96047965 -10.38686457 109.77204039 -10.3880811 111.58360113 C-10.39896568 128.58500772 -10.39678988 145.58639448 -10.39069625 162.58780219 C-10.38552705 178.14918781 -10.39678098 193.71051083 -10.41579447 209.27188407 C-10.435156 225.24021436 -10.44343178 241.20851501 -10.43967122 257.17685711 C-10.43775651 266.14587852 -10.44027286 275.11484664 -10.45438576 284.08385849 C-10.46627913 291.71980251 -10.46772754 299.35566047 -10.45559559 306.99160562 C-10.44969229 310.88891468 -10.44864727 314.78606616 -10.46059799 318.68336487 C-10.47339355 322.90518569 -10.46302679 327.12662886 -10.45028687 331.34844971 C-10.45766115 332.58472449 -10.46503543 333.82099928 -10.47263318 335.09473693 C-10.46542664 336.22449546 -10.4582201 337.35425398 -10.45079517 338.5182476 C-10.45085019 339.49288236 -10.45090521 340.46751711 -10.45096189 341.47168624 C-10.00521914 344.66077007 -8.93273802 346.54645616 -7.07606506 349.15390015 C-3.71644129 351.61897303 -0.43974859 351.40063361 3.63102722 351.39440918 C4.64070765 351.39697245 4.64070765 351.39697245 5.67078567 351.39958751 C7.92487362 351.40288013 10.17866349 351.39188267 12.432724 351.38095093 C14.04905694 351.38038676 15.66539038 351.38070348 17.28172302 351.38183594 C21.6698208 351.38241025 26.05780945 351.37064324 30.44588184 351.35668802 C35.03163921 351.34419375 39.61739902 351.34301119 44.20317078 351.34063721 C52.8870569 351.33441861 61.57089272 351.31800264 70.25475669 351.29793823 C80.14099045 351.27559106 90.0272266 351.26458877 99.91347933 351.25454736 C120.25032595 351.23363675 140.58712728 351.19845338 160.92393494 351.15390015 C159.64985355 349.23435561 158.37465382 347.31555333 157.09898376 345.39706421 C156.3889772 344.32845154 155.67897064 343.25983887 154.94744873 342.15884399 C152.59492966 338.66532311 150.13870278 335.27162807 147.61143494 331.90390015 C142.3237625 324.76837023 137.25821229 317.49731089 132.27793884 310.1446228 C130.92439147 308.15457137 129.55609854 306.17531075 128.18565369 304.1968689 C125.68481725 300.56510424 123.27483736 296.8842486 120.92393494 293.15390015 C120.35159119 292.25800171 119.77924744 291.36210327 119.18955994 290.4390564 C114.15943269 281.26896488 114.55087082 269.80443975 116.62315369 259.7671814 C120.04369153 249.41897197 127.80617737 239.78071641 137.58409119 234.7984314 C140.01328164 233.80743618 142.41562852 232.92068812 144.92393494 232.15390015 C145.83852478 231.86579468 145.83852478 231.86579468 146.77159119 231.5718689 C159.83455888 229.03514014 171.51755454 231.89994469 182.38877869 239.20858765 C187.90813508 243.44377945 191.6815732 248.7451504 195.62705994 254.4156189 C196.24742126 255.30595825 196.86778259 256.19629761 197.50694275 257.11361694 C197.97455017 257.7869104 198.44215759 258.46020386 198.92393494 259.15390015 C198.92751747 257.83115066 198.92751747 257.83115066 198.93117237 256.48167896 C198.9902877 235.03267929 199.06581553 213.58379231 199.15964985 192.13491535 C199.20463079 181.76242907 199.24404016 171.38997731 199.27037048 161.01742554 C199.29333194 151.97755552 199.32670922 142.93779451 199.3726365 133.89801091 C199.3965937 129.11074049 199.41530611 124.32357819 199.42154884 119.53624916 C199.4275884 115.03086868 199.4475473 110.52576495 199.47821045 106.02048683 C199.48700881 104.36651021 199.49070954 102.71249746 199.4889431 101.05849838 C199.48729278 98.80033085 199.50396783 96.54300941 199.52520752 94.28495789 C199.52981648 93.0211797 199.53442545 91.75740152 199.53917408 90.45532703 C199.9579117 86.86236372 200.6950745 84.98184922 202.92393494 82.15390015 C206.32823786 80.73028256 208.61504125 79.8001451 212.23643494 80.77890015 C214.30098232 82.46112394 214.94286915 83.67278587 215.92393494 86.15390015 C216.16444397 88.98867798 216.16444397 88.98867798 216.15098572 92.29940796 C216.15075912 94.1608847 216.15075912 94.1608847 216.15052795 96.05996704 C216.14031555 97.40898805 216.12988357 98.75800741 216.11924744 100.10702515 C216.11551543 101.49136145 216.11266934 102.87570039 216.110672 104.26004028 C216.10305028 107.89656925 216.08341449 111.53293745 216.06126404 115.16940308 C216.04077403 118.88296331 216.03166355 122.59654963 216.02159119 126.31015015 C216.00016709 133.59147329 215.96604895 140.87266416 215.92393494 148.15390015 C216.67988953 148.44128052 217.43584412 148.72866089 218.21470642 149.02474976 C221.76008561 150.50239045 224.82234637 152.56945625 227.98643494 154.71640015 C228.64546814 155.16040161 229.30450134 155.60440308 229.98350525 156.06185913 C242.8413558 164.7925942 254.98708109 174.43524734 266.46299744 184.9156189 C268.08815743 186.3937406 269.728674 187.85517276 271.38487244 189.2984314 C282.24396098 198.80441584 291.45876526 209.50504672 299.92393494 221.15390015 C300.32966736 221.7032019 300.73539978 222.25250366 301.15342712 222.81845093 C312.80675416 238.74589672 321.40025273 256.94374282 325.92393494 276.15390015 C326.15467712 277.08460327 326.38541931 278.0153064 326.62315369 278.97421265 C331.9459257 303.66281476 327.10405117 327.65805564 319.63096619 351.3062439 C306.83022921 391.88042103 303.07563875 437.09305169 307.44346619 479.3140564 C309.47195653 499.04381423 309.47195653 499.04381423 303.92393494 506.15390015 C299.82422853 510.04862123 296.09912254 512.39689561 290.39665222 512.42132568 C289.49398621 512.42985565 288.59132019 512.43838562 287.66130066 512.44717407 C286.18690521 512.44581451 286.18690521 512.44581451 284.682724 512.44442749 C283.12104492 512.45450333 283.12104492 512.45450333 281.52781677 512.46478271 C278.08168275 512.48379937 274.63574318 512.48768904 271.18955994 512.48983765 C268.7930544 512.49626391 266.39654965 512.50299214 264.00004578 512.51000977 C258.9730294 512.52199235 253.94608178 512.52568966 248.91905212 512.52450562 C242.48521619 512.52430258 236.05182273 512.55158514 229.61809158 512.58605003 C224.66632574 512.60831749 219.71466631 512.61234316 214.76285553 512.61128616 C212.3914462 512.6136431 210.02003399 512.62247177 207.64867401 512.6379509 C204.32637839 512.65760326 201.00503582 512.65177458 197.682724 512.63973999 C196.70789063 512.650979 195.73305725 512.66221802 194.72868347 512.67379761 C187.83101359 512.61048485 182.15933752 511.28626443 177.08409119 506.37265015 C176.72186462 505.80546265 176.35963806 505.23827515 175.98643494 504.65390015 C175.6061615 504.08671265 175.22588806 503.51952515 174.83409119 502.93515015 C173.11337189 499.56756216 172.77267806 496.17101756 172.52940369 492.43515015 C170.72020433 467.15495795 165.312066 445.86944374 154.04893494 423.15390015 C149.67067291 414.29667127 145.98696461 405.40417537 142.86143494 396.02890015 C142.50388123 394.96413452 142.14632751 393.8993689 141.77793884 392.80233765 C139.91454666 387.00312384 138.4625412 381.22106973 137.3089447 375.24813843 C137.17415962 374.56199966 137.03937454 373.8758609 136.90050507 373.16893005 C136.57256896 371.49772505 136.24790669 369.82587818 135.92393494 368.15390015 C134.84001685 368.15170031 134.84001685 368.15170031 133.73420143 368.14945602 C116.12219653 368.11234623 98.51040101 368.05327637 80.89855385 367.96999741 C72.38145776 367.93024895 63.86445352 367.89783522 55.34727478 367.88290405 C47.92057754 367.86986573 40.49408273 367.84284567 33.06749952 367.79928708 C29.13795897 367.77672104 25.20866764 367.76098653 21.27905655 367.7620163 C17.57381252 367.76276581 13.86911836 367.74469971 10.16401672 367.71273232 C8.16926386 367.70026676 6.17441842 367.70727462 4.17964172 367.71504211 C-4.25866953 367.61790091 -11.68913257 366.61351357 -18.47840881 361.2593689 C-24.67689074 353.51520955 -27.19732718 346.50953162 -27.20469952 336.47442913 C-27.20792396 335.36031334 -27.21114841 334.24619754 -27.21447057 333.09832066 C-27.21292196 331.88461523 -27.21137336 330.6709098 -27.20977783 329.42042542 C-27.21204339 328.12307931 -27.21430894 326.8257332 -27.21664315 325.48907357 C-27.2227534 321.89429833 -27.22262847 318.29954636 -27.22144878 314.70476711 C-27.22124458 310.82531494 -27.2267654 306.94587021 -27.23150635 303.06642151 C-27.23980919 295.46818787 -27.24256102 287.86996198 -27.24311873 280.27172419 C-27.24359406 274.09488341 -27.24564966 267.91804519 -27.24881935 261.74120522 C-27.2576249 244.22490974 -27.26223888 226.7086204 -27.26148888 209.19232269 C-27.26144892 208.24821503 -27.26140896 207.30410737 -27.2613678 206.33139038 C-27.26132692 205.38612869 -27.26128604 204.44086699 -27.26124392 203.466961 C-27.26083747 188.14774428 -27.27040698 172.82855213 -27.28450616 157.50934251 C-27.29887218 141.7759447 -27.30577622 126.04255887 -27.30491239 110.30915433 C-27.3045805 101.47755318 -27.30732411 92.6459778 -27.31809044 83.81438255 C-27.32719839 76.29502351 -27.32936826 68.77570192 -27.32258102 61.25633975 C-27.31931732 57.42132724 -27.31925371 53.58638658 -27.32793427 49.75138092 C-27.33725585 45.59030824 -27.33101932 41.42940174 -27.32330322 37.26832581 C-27.32844679 36.06131254 -27.33359035 34.85429927 -27.33888978 33.61070985 C-27.29598571 23.14367759 -26.24799009 14.2517411 -19.07606506 6.15390015 C-12.95533715 1.29434301 -7.7426901 0.00492783 0 0 Z M214.92393494 166.15390015 C214.68942662 181.29695669 214.51355192 196.43992917 214.40581322 211.58439827 C214.35443793 218.61778911 214.28451202 225.65004617 214.16954041 232.68270874 C214.05850382 239.47796118 214.00098528 246.27203887 213.97516251 253.06814194 C213.95677609 255.65246924 213.92087099 258.23673692 213.86663437 260.82056046 C213.55060095 276.50944086 213.83534969 286.49926438 224.92393494 298.15390015 C226.37791351 300.15834458 227.80502225 302.18290763 229.18955994 304.2359314 C229.85213806 305.18790405 230.51471619 306.13987671 231.19737244 307.12069702 C231.84963806 308.05977905 232.50190369 308.99886108 233.17393494 309.96640015 C233.84166931 310.92481812 234.50940369 311.88323608 235.19737244 312.87069702 C237.11363059 315.62672713 239.01940056 318.38976121 240.92393494 321.15390015 C241.51674255 322.00016968 242.10955017 322.84643921 242.72032166 323.71835327 C243.26446716 324.50790405 243.80861267 325.29745483 244.36924744 326.1109314 C244.84893982 326.80033813 245.3286322 327.48974487 245.82286072 328.20004272 C247.58518496 331.32728905 247.61634845 333.69183256 246.92393494 337.15390015 C244.84687128 339.53867694 243.61518903 340.0774634 240.48643494 340.4234314 C236.43401838 339.99718636 235.25156477 337.69175225 232.78330994 334.65390015 C230.15727788 331.12310074 227.73704325 327.47997764 225.33409119 323.79452515 C222.41778324 319.34800147 219.3552318 315.0048405 216.29893494 310.65390015 C215.69879578 309.79892944 215.09865662 308.94395874 214.48033142 308.06307983 C213.24412839 306.30272934 212.00755257 304.54264058 210.77061462 302.7828064 C207.81624213 298.57700483 204.87049941 294.36517355 201.92393494 290.15390015 C201.35271912 289.33824585 200.7815033 288.52259155 200.19297791 287.68222046 C197.17197003 283.36843512 194.15468227 279.05210757 191.14268494 274.73202515 C190.52006775 273.8399939 189.89745056 272.94796265 189.25596619 272.02890015 C188.07514745 270.33698076 186.89537894 268.64432768 185.71690369 266.95077515 C184.1295268 264.67768175 182.52947573 262.41419076 180.92393494 260.15390015 C180.40468445 259.41131958 179.88543396 258.66873901 179.35044861 257.90365601 C176.66086082 254.15819072 174.46890517 251.29200946 170.23643494 249.21640015 C169.49006775 248.83612671 168.74370056 248.45585327 167.97471619 248.0640564 C161.43972778 245.16376631 153.89260711 244.94815914 147.05674744 247.0249939 C140.02578317 250.28402748 134.18841111 255.45722264 131.40049744 262.88046265 C129.2818244 272.987575 130.42070624 280.62040065 135.92393494 289.15390015 C137.63281845 291.74301865 139.41593219 294.26728933 141.23643494 296.77890015 C142.28941205 298.25091746 143.34144149 299.72361299 144.39268494 301.1968689 C144.95600525 301.98496948 145.51932556 302.77307007 146.09971619 303.58505249 C149.51530804 308.39485676 152.87275143 313.24522312 156.23643494 318.09140015 C162.27371785 326.78502833 168.32361607 335.46919024 174.42393494 344.1187439 C177.94555185 349.11552591 181.44442675 354.12770684 184.92393494 359.15390015 C185.3593158 359.78167358 185.79469666 360.40944702 186.24327087 361.0562439 C187.2761125 362.55823771 188.28875669 364.07407119 189.29893494 365.59140015 C189.82229431 366.37386108 190.34565369 367.15632202 190.88487244 367.9624939 C192.63512699 371.65382024 192.18975968 374.35642592 190.92393494 378.15390015 C189.48653981 378.18102081 188.04899631 378.20035082 186.61143494 378.21640015 C185.81092712 378.22800171 185.01041931 378.23960327 184.18565369 378.2515564 C181.92393494 378.15390015 181.92393494 378.15390015 178.92393494 377.15390015 C178.23352919 375.49692636 177.57087144 373.82832404 176.92393494 372.15390015 C175.62841757 369.31850593 175.62841757 369.31850593 172.92393494 367.15390015 C169.32628336 366.52386137 165.81214189 366.68395444 162.17393494 366.84140015 C161.19038025 366.86395874 160.20682556 366.88651733 159.19346619 366.90975952 C156.76874023 366.96861209 154.3471151 367.05076584 151.92393494 367.15390015 C154.97366955 387.21883395 162.62712487 405.33616023 171.46128845 423.47421265 C181.37599735 443.88028725 187.30745065 465.03635522 187.50914001 487.84677124 C187.4543635 492.1186676 187.4543635 492.1186676 189.18772697 495.87653732 C191.325767 497.44953601 192.43799564 497.5266649 195.07435608 497.52139282 C195.91845032 497.52696198 196.76254456 497.53253113 197.63221741 497.53826904 C198.55493439 497.52905426 199.47765137 497.51983948 200.42832947 497.51034546 C201.88961273 497.51341202 201.88961273 497.51341202 203.38041687 497.51654053 C206.60605022 497.51955297 209.83117471 497.50105944 213.05674744 497.48202515 C215.29208754 497.47896866 217.52742954 497.4770917 219.76277161 497.47634888 C224.44856548 497.47174312 229.13418775 497.45730491 233.81993103 497.43515015 C239.84067805 497.40683495 245.86128997 497.39593575 251.88209724 497.39146805 C256.4973029 497.38732125 261.11248096 497.37751051 265.72767258 497.36559296 C267.94854891 497.35987724 270.16942793 497.35512287 272.39030838 497.35132599 C275.48636343 497.34448826 278.58230904 497.33086864 281.67832947 497.31503296 C283.06847763 497.31335617 283.06847763 497.31335617 284.48670959 497.31164551 C288.52649228 497.6922356 288.52649228 497.6922356 291.92393494 496.15390015 C292.02614713 493.37312729 292.06244473 490.62216642 292.04893494 487.84140015 C292.05280212 487.08794312 292.05666931 486.33448608 292.06065369 485.55819702 C292.05344511 481.25828254 291.84348721 477.03928835 291.42784119 472.7593689 C290.65999302 464.11282063 290.7237802 455.45282148 290.73643494 446.77890015 C290.73833832 445.4384967 290.73833832 445.4384967 290.74028015 444.0710144 C290.77656661 430.66421912 290.98901285 417.44244567 292.92393494 404.15390015 C293.01630432 403.51728455 293.10867371 402.88066895 293.20384216 402.22476196 C296.55114304 379.33201895 301.03934229 357.093492 308.04893494 335.01327515 C317.03787691 305.63869692 313.70468408 276.36051222 299.54893494 249.27890015 C295.87994304 242.4773908 291.70040293 236.23573828 286.92393494 230.15390015 C286.37350525 229.41268921 285.82307556 228.67147827 285.25596619 227.9078064 C273.14838739 211.77395437 257.96566901 196.34647819 241.92393494 184.15390015 C241.30486267 183.67968628 240.68579041 183.20547241 240.04795837 182.71688843 C228.32552917 172.08652778 228.32552917 172.08652778 214.92393494 166.15390015 Z " fill="#261F20" transform="translate(105.07606506347656,-0.153900146484375)"/>
<path d="M0 0 C0.74958984 0.00451172 1.49917969 0.00902344 2.27148438 0.01367188 C4.11852383 0.02543646 5.96552213 0.04337135 7.8125 0.0625 C7.48773808 1.27558775 7.16297615 2.4886755 6.82837296 3.73852348 C5.46974172 9.90066635 5.53543426 15.96023694 5.55853271 22.24612427 C5.55541273 23.55561189 5.55229275 24.8650995 5.54907823 26.21426857 C5.54076504 29.82895902 5.54483957 33.44354324 5.55105066 37.05823398 C5.55558835 40.96418381 5.54858493 44.87011577 5.54309082 48.77606201 C5.53420971 56.41934635 5.53611297 64.06259134 5.5419161 71.7058772 C5.54643697 77.91794398 5.54704366 84.12999976 5.54486847 90.34206772 C5.544562 91.22694285 5.54425554 92.11181797 5.54393978 93.0235075 C5.54330032 94.82121358 5.5426519 96.61891965 5.5419946 98.41662572 C5.53629524 115.26265452 5.54284337 132.10866152 5.55359533 148.95468675 C5.56253359 163.40648826 5.56097578 177.85825765 5.55175781 192.31005859 C5.54105357 209.09983374 5.53684126 225.88958982 5.54298234 242.6793679 C5.54361943 244.46976653 5.54424817 246.26016517 5.54486847 248.05056381 C5.54517702 248.93143922 5.54548557 249.81231464 5.54580347 250.71988324 C5.54752972 256.92485404 5.54461689 263.12981273 5.53990936 269.33478165 C5.53429897 276.89585063 5.53582046 284.45687809 5.54647085 292.01794232 C5.55172493 295.87500283 5.55378873 299.73199412 5.54717255 303.58905411 C5.5401086 307.77037729 5.54854653 311.95152584 5.55853271 316.13284302 C5.55407127 317.3514175 5.54960983 318.56999199 5.54501319 319.82549298 C5.55022868 320.94856661 5.55544418 322.07164025 5.56081772 323.22874641 C5.56130478 324.67556744 5.56130478 324.67556744 5.56180167 326.15161717 C5.78284033 329.80316911 5.78284033 329.80316911 7.8125 336.0625 C56.3225 336.0625 104.8325 336.0625 154.8125 336.0625 C155.1425 335.4025 155.4725 334.7425 155.8125 334.0625 C156.1425 335.0525 156.4725 336.0425 156.8125 337.0625 C135.40283876 337.15593966 113.99321115 337.22647744 92.58338737 337.26974869 C82.64243631 337.29037428 72.70161194 337.31849486 62.76074219 337.36425781 C54.09631679 337.40412562 45.43198314 337.42993284 36.76746857 337.43885398 C32.17959938 337.44406882 27.59199268 337.45632553 23.00420761 337.48542023 C18.6851688 337.51258845 14.3665004 337.52094217 10.04738426 337.51493073 C8.46312764 337.51603034 6.87885851 337.52397602 5.29467583 337.5393219 C3.12868608 337.55927292 0.96408824 337.554422 -1.20193481 337.54351807 C-2.4131708 337.54720524 -3.62440678 337.55089241 -4.87234688 337.55469131 C-8.91862152 336.95395248 -11.04920599 335.65393259 -14.1875 333.0625 C-16.23883792 329.86603043 -16.44002884 327.3169584 -16.44756222 323.55827522 C-16.4581606 321.86939916 -16.4581606 321.86939916 -16.4689731 320.14640439 C-16.46655802 318.90926312 -16.46414293 317.67212185 -16.46165466 316.39749146 C-16.46689134 315.08340329 -16.47212802 313.76931513 -16.47752339 312.41540611 C-16.49171845 308.76469996 -16.4933664 305.1140789 -16.49292648 301.4633491 C-16.49457334 297.52732627 -16.5076373 293.59133862 -16.51911926 289.65533447 C-16.54197742 281.04800548 -16.54989056 272.44070112 -16.55494571 263.83334589 C-16.55820139 258.46023217 -16.56472303 253.08712563 -16.5719471 247.71401596 C-16.59151308 232.84070885 -16.60791764 217.96740841 -16.61082363 203.0940876 C-16.6110112 202.14216663 -16.61119877 201.19024567 -16.61139202 200.20947861 C-16.61175828 198.27966682 -16.61212198 196.34985503 -16.61248314 194.42004324 C-16.61266595 193.46206862 -16.61284876 192.504094 -16.61303711 191.51708984 C-16.61321766 190.55794776 -16.61339821 189.59880567 -16.61358423 188.61059867 C-16.61712723 173.0628481 -16.64415746 157.51523592 -16.681535 141.96753336 C-16.71959283 126.0093352 -16.73898092 110.05120576 -16.73928314 94.09296119 C-16.73986824 85.13114042 -16.74839382 76.16948478 -16.77728081 67.20770645 C-16.80176083 59.57799962 -16.80910046 51.94851816 -16.79403328 44.3187827 C-16.78685075 40.42528433 -16.78777898 36.53223129 -16.81044388 32.6387825 C-16.83477139 28.41935085 -16.82043622 24.20093797 -16.80223083 19.98147583 C-16.8154308 18.74879601 -16.82863077 17.51611618 -16.84223074 16.24608243 C-16.75095538 7.01845916 -16.75095538 7.01845916 -13.83657932 3.31756401 C-9.45484546 -0.41244522 -5.48105574 -0.06223033 0 0 Z " fill="#CE2620" transform="translate(110.1875,14.9375)"/>
<path d="M0 0 C0.66 0 1.32 0 2 0 C2 57.42 2 114.84 2 174 C-0.91476627 171.08523373 -2.93410853 168.8494257 -5.125 165.5 C-5.87136719 164.37078125 -5.87136719 164.37078125 -6.6328125 163.21875 C-7.88334957 161.18930699 -8.97387873 159.14996838 -10 157 C-8.68 157.66 -7.36 158.32 -6 159 C-6 159.66 -6 160.32 -6 161 C-5.360625 161.28875 -4.72125 161.5775 -4.0625 161.875 C-2 163 -2 163 -1 165 C-0.67 110.55 -0.34 56.1 0 0 Z " fill="#DE5E5B" transform="translate(303,87)"/>
<path d="M0 0 C2 3 2 3 2 5 C-3.23824522 6.07540729 -8.26624304 6.13512346 -13.58544922 6.11352539 C-14.53242172 6.11367142 -15.47939423 6.11381744 -16.45506287 6.1139679 C-19.57162806 6.11327364 -22.6881328 6.10550406 -25.8046875 6.09765625 C-27.97087573 6.09579034 -30.13706437 6.09436725 -32.30325317 6.09336853 C-37.99468152 6.08955698 -43.68608421 6.07973832 -49.37750244 6.06866455 C-55.18916476 6.05842114 -61.00083125 6.05386463 -66.8125 6.04882812 C-78.20834459 6.03811482 -89.60417016 6.02105476 -101 6 C-101.33 5.34 -101.66 4.68 -102 4 C-100.12745041 3.99120064 -100.12745041 3.99120064 -98.21707153 3.98222351 C-86.47408234 3.92510437 -74.73128027 3.85239989 -62.98848152 3.76428509 C-56.95083058 3.7194852 -50.91324862 3.68025046 -44.87548828 3.65356445 C-39.05283492 3.62762725 -33.23044569 3.58729343 -27.40795517 3.53681374 C-25.18235423 3.52007994 -22.95670755 3.50860642 -20.7310524 3.50238609 C-17.62266344 3.49281561 -14.51496026 3.4648416 -11.40673828 3.43237305 C-10.47885498 3.43380814 -9.55097168 3.43524323 -8.5949707 3.4367218 C-7.75080597 3.42418365 -6.90664124 3.41164551 -6.03689575 3.39872742 C-5.30130495 3.39411845 -4.56571415 3.38950949 -3.80783272 3.38476086 C-1.58311671 3.13122328 -1.58311671 3.13122328 0 0 Z " fill="#301D11" transform="translate(398,493)"/>
<path d="M0 0 C0.33 0.66 0.66 1.32 1 2 C0.34 2 -0.32 2 -1 2 C-1 2.66 -1 3.32 -1 4 C-1.66 4 -2.32 4 -3 4 C-3.33 4.99 -3.66 5.98 -4 7 C-4.66 7 -5.32 7 -6 7 C-6 63.76 -6 120.52 -6 179 C-6.33 179 -6.66 179 -7 179 C-7.07001682 156.23466821 -7.1229522 133.46935412 -7.15543652 110.70393658 C-7.17091905 100.13404941 -7.19203502 89.56422905 -7.22631836 78.99438477 C-7.25617831 69.78393362 -7.27556491 60.57353085 -7.28226548 51.36303264 C-7.28618353 46.48411974 -7.29542015 41.60534528 -7.31719017 36.72647667 C-7.3375016 32.13745792 -7.34384467 27.54863508 -7.33932304 22.95957565 C-7.34015065 21.27247746 -7.34614806 19.58537294 -7.35761642 17.89831352 C-7.37247727 15.60011255 -7.36897756 13.30265747 -7.36076355 11.00444031 C-7.36352893 9.71669551 -7.36629431 8.42895071 -7.36914349 7.10218334 C-7 4 -7 4 -5.61417103 2.10519123 C-3.76702602 0.84048728 -2.19528404 0.37849725 0 0 Z " fill="#361714" transform="translate(313,80)"/>
<path d="M0 0 C0.66 0 1.32 0 2 0 C1.84660156 0.97066406 1.69320312 1.94132812 1.53515625 2.94140625 C-0.59221401 18.10700639 0.94702717 28.91199444 9 42 C9.58136719 42.97195313 10.16273438 43.94390625 10.76171875 44.9453125 C11.17035156 45.62335938 11.57898438 46.30140625 12 47 C10.2265625 46.9375 10.2265625 46.9375 8 46 C6.61353624 43.65997678 5.47295689 41.46797389 4.375 39 C2.56564407 34.23946613 2.56564407 34.23946613 -1 31 C-2.20804308 26.06779866 -2.18331143 21.10973229 -2.1875 16.0625 C-2.19974609 15.28970703 -2.21199219 14.51691406 -2.22460938 13.72070312 C-2.23718498 8.76172227 -1.58420501 4.7025216 0 0 Z " fill="#CA5959" transform="translate(221,256)"/>
<path d="M0 0 C0.66 0.99 1.32 1.98 2 3 C1.690625 3.598125 1.38125 4.19625 1.0625 4.8125 C-3.84743196 14.92118344 -0.42657625 28.24972901 1 39 C-3.74293724 33.17912247 -4.38645291 28.16263142 -4.375 20.875 C-4.37628906 20.03348389 -4.37757813 19.19196777 -4.37890625 18.32495117 C-4.26586653 11.64340455 -3.02657234 6.01261023 0 0 Z " fill="#3D1816" transform="translate(225,252)"/>
<path d="M0 0 C17.85649203 -0.3690205 17.85649203 -0.3690205 26 2 C26 2.99 26 3.98 26 5 C24.989375 4.67 23.97875 4.34 22.9375 4 C13.20869574 1.58075915 2.61574383 2.46596868 -7 5 C-6.34 4.01 -5.68 3.02 -5 2 C-2.375 1.8125 -2.375 1.8125 0 2 C0 1.34 0 0.68 0 0 Z " fill="#C25855" transform="translate(251,229)"/>
<path d="M0 0 C1.14806133 3.41975716 0.83383098 5.72148953 0.00390625 9.203125 C-0.22490234 10.1828125 -0.45371094 11.1625 -0.68945312 12.171875 C-0.93630859 13.18765625 -1.18316406 14.2034375 -1.4375 15.25 C-1.68048828 16.28125 -1.92347656 17.3125 -2.17382812 18.375 C-2.77442781 20.91871633 -3.38341641 23.46011941 -4 26 C-4.33 26 -4.66 26 -5 26 C-6.75814302 13.91276675 -6.75814302 13.91276675 -6 9 C-4.125 7.3125 -4.125 7.3125 -2 6 C-0.71991738 2.91222828 -0.71991738 2.91222828 0 0 Z " fill="#EFCC94" transform="translate(406,352)"/>
<path d="M0 0 C4.98980717 4.98980717 4.125 15.12862304 4.125 21.75 C4.09343165 23.83351082 4.05546481 25.91698835 4 28 C3.34 27.67 2.68 27.34 2 27 C1.71309043 24.32907891 1.53241953 21.74108285 1.4375 19.0625 C1.43599355 13.87283366 1.43599355 13.87283366 0 9 C-0.06950541 7.45976004 -0.08452357 5.91665012 -0.0625 4.375 C-0.05347656 3.55773437 -0.04445313 2.74046875 -0.03515625 1.8984375 C-0.02355469 1.27195312 -0.01195312 0.64546875 0 0 Z " fill="#413219" transform="translate(289,460)"/>
<path d="M0 0 C0.61875 0.433125 1.2375 0.86625 1.875 1.3125 C1.215 1.6425 0.555 1.9725 -0.125 2.3125 C-2.11328125 1.5703125 -2.11328125 1.5703125 -4.4375 0.4375 C-9.70057156 -2.11808314 -14.28687966 -2.83776709 -20.125 -2.875 C-21.135625 -2.88917969 -22.14625 -2.90335938 -23.1875 -2.91796875 C-26.23368869 -2.67897256 -28.32633821 -1.85207472 -31.125 -0.6875 C-32.445 -0.6875 -33.765 -0.6875 -35.125 -0.6875 C-35.125 -1.3475 -35.125 -2.0075 -35.125 -2.6875 C-23.36508899 -6.47663692 -10.93826441 -5.90666278 0 0 Z " fill="#451816" transform="translate(282.125,235.6875)"/>
<path d="M0 0 C0.66 0 1.32 0 2 0 C2.33 0.99 2.66 1.98 3 3 C6.76300374 4.25433458 10.27210909 4.10695422 14.1875 4.0625 C15.31188477 4.05573242 15.31188477 4.05573242 16.45898438 4.04882812 C18.30602383 4.03706354 20.15302213 4.01912865 22 4 C22.33 4.99 22.66 5.98 23 7 C20.10259378 7.13539281 17.21154379 7.23426829 14.3125 7.3125 C13.49587891 7.35439453 12.67925781 7.39628906 11.83789062 7.43945312 C7.3525803 7.53024888 5.58207251 7.45223124 1.91796875 4.60546875 C0 2 0 2 0 0 Z " fill="#BA2B28" transform="translate(95,344)"/>
<path d="M0 0 C5.05677406 0.77796524 8.68959794 3.27265183 11.71875 7.265625 C13.19710878 9.48316317 14.62459145 11.71740708 16 14 C13.69 13.34 11.38 12.68 9 12 C9 10.02 9 8.04 9 6 C7.02 6 5.04 6 3 6 C2.01 4.02 1.02 2.04 0 0 Z " fill="#E4CA8C" transform="translate(271,248)"/>
<path d="M0 0 C0.99 0.66 1.98 1.32 3 2 C2.13117188 1.97679687 1.26234375 1.95359375 0.3671875 1.9296875 C-0.78523438 1.91164062 -1.93765625 1.89359375 -3.125 1.875 C-4.26195312 1.85179687 -5.39890625 1.82859375 -6.5703125 1.8046875 C-10.72891963 2.04151023 -14.58499568 2.52839551 -17.5625 5.625 C-19 7 -19 7 -21.6875 7.1875 C-22.8321875 7.0946875 -22.8321875 7.0946875 -24 7 C-17.47503483 -0.5689596 -9.48488042 -0.98694026 0 0 Z " fill="#E6CA8B" transform="translate(268,246)"/>
<path d="M0 0 C0 2 0 2 -1.25 3.625 C-3 5 -3 5 -7 5 C-7 5.66 -7 6.32 -7 7 C-7.680625 7.37125 -8.36125 7.7425 -9.0625 8.125 C-13.16400033 10.74297893 -15.92519879 14.26947749 -19 18 C-19 13.70352601 -16.88270539 12.1618917 -14.08203125 9.0703125 C-4.96037736 0 -4.96037736 0 0 0 Z " fill="#4C1D1A" transform="translate(246,234)"/>
<path d="M0 0 C0.66 0 1.32 0 2 0 C2.3152595 5.98993047 1.68219822 9.63560356 -1 15 C-1.66 15 -2.32 15 -3 15 C-3.33 16.32 -3.66 17.64 -4 19 C-5.27182008 16.45635984 -4.82067275 15.75536947 -4.00390625 13.0859375 C-3.66069336 11.94511719 -3.66069336 11.94511719 -3.31054688 10.78125 C-3.06369141 9.9871875 -2.81683594 9.193125 -2.5625 8.375 C-2.31951172 7.57320313 -2.07652344 6.77140625 -1.82617188 5.9453125 C-1.22395927 3.96155332 -0.61281311 1.98051018 0 0 Z " fill="#3B2523" transform="translate(412,335)"/>
<path d="M0 0 C4.47014404 2.50328066 8.76946537 5.1108544 13 8 C12.34 8.66 11.68 9.32 11 10 C10.46375 9.505 9.9275 9.01 9.375 8.5 C6.40641555 6.62510456 4.44687573 6.76498575 1 7 C0.67 4.69 0.34 2.38 0 0 Z " fill="#E9CB8E" transform="translate(321,166)"/>
<path d="M0 0 C-3.54039134 2.9156164 -7.1626772 5.50127818 -11 8 C-10.14589713 4.79711425 -9.47392731 2.50661195 -7.1875 0.0625 C-4.38934155 -1.29660553 -2.91979993 -0.89216109 0 0 Z " fill="#E05C5D" transform="translate(244,234)"/>
<path d="M0 0 C5.61 0 11.22 0 17 0 C17 0.33 17 0.66 17 1 C11.72 1 6.44 1 1 1 C1 1.66 1 2.32 1 3 C-3.625 5.125 -3.625 5.125 -7 4 C-5 2 -5 2 -2.375 1.875 C-1.59125 1.91625 -0.8075 1.9575 0 2 C0 1.34 0 0.68 0 0 Z " fill="#DD5D58" transform="translate(251,229)"/>
<path d="M0 0 C0.33 0 0.66 0 1 0 C1.02693575 2.12493141 1.04636628 4.24995912 1.0625 6.375 C1.07410156 7.55835938 1.08570313 8.74171875 1.09765625 9.9609375 C1 13 1 13 0 15 C-0.99 15 -1.98 15 -3 15 C-2.69052329 13.06201479 -2.37731166 11.12462574 -2.0625 9.1875 C-1.88847656 8.10855469 -1.71445312 7.02960938 -1.53515625 5.91796875 C-1 3 -1 3 0 0 Z " fill="#46382B" transform="translate(406,356)"/>
<path d="M0 0 C0.66 0 1.32 0 2 0 C1.86722656 0.78503906 1.73445312 1.57007813 1.59765625 2.37890625 C0.66757357 7.91187987 -0.24191887 13.44073841 -1 19 C-1.33 19 -1.66 19 -2 19 C-2.19818283 12.29481414 -2.30844801 6.34823202 0 0 Z " fill="#DB5D5D" transform="translate(221,256)"/>
<path d="M0 0 C0.66 0.33 1.32 0.66 2 1 C1.04270084 2.12588014 0.08412105 3.2506715 -0.875 4.375 C-1.40867188 5.00148437 -1.94234375 5.62796875 -2.4921875 6.2734375 C-3.61432007 7.55836651 -4.79371975 8.79371975 -6 10 C-6.5534764 7.92446352 -7 6.15634036 -7 4 C-6.01 4 -5.02 4 -4 4 C-3.67 3.01 -3.34 2.02 -3 1 C-2.01 0.67 -1.02 0.34 0 0 Z " fill="#E35C5A" transform="translate(231,242)"/>
<path d="M0 0 C5.29158974 1.40071493 7.77478044 4.85487245 11 9 C10.01 9.495 10.01 9.495 9 10 C9 9.34 9 8.68 9 8 C7.35 8 5.7 8 4 8 C4 6.35 4 4.7 4 3 C2.68 2.67 1.36 2.34 0 2 C0 1.34 0 0.68 0 0 Z " fill="#471B1A" transform="translate(284,238)"/>
<path d="M0 0 C1.32 0.33 2.64 0.66 4 1 C4.66 4.63 5.32 8.26 6 12 C5.34 12 4.68 12 4 12 C3.3291288 10.3767313 2.66342971 8.75132422 2 7.125 C1.62875 6.22007812 1.2575 5.31515625 0.875 4.3828125 C0 2 0 2 0 0 Z " fill="#36251C" transform="translate(409,259)"/>
<path d="M0 0 C7.11877644 0.79097516 9.03138686 3.03138686 14 8 C13.67 8.66 13.34 9.32 13 10 C12.39671875 9.52949219 11.7934375 9.05898437 11.171875 8.57421875 C10.37265625 7.95160156 9.5734375 7.32898438 8.75 6.6875 C7.56664062 5.76517578 7.56664062 5.76517578 6.359375 4.82421875 C4.2537703 3.19620982 2.13390657 1.59064137 0 0 Z " fill="#D65655" transform="translate(279,234)"/>
<path d="M0 0 C4.52615993 3.67832017 8.39424999 7.41086363 12 12 C8.5176374 11.74204721 7.81191289 10.78438795 5.4375 8.0625 C4.633125 7.051875 3.82875 6.04125 3 5 C2.01 4.34 1.02 3.68 0 3 C0 2.01 0 1.02 0 0 Z " fill="#EECBA0" transform="translate(360,196)"/>
<path d="M0 0 C2.8369841 1.36573821 5.00722456 2.50903069 7 5 C7 5.99 7 6.98 7 8 C7.66 8.33 8.32 8.66 9 9 C9 9.66 9 10.32 9 11 C5.17946076 9.72648692 4.76978625 8.37362475 2.8125 4.9375 C2.28269531 4.01839844 1.75289063 3.09929687 1.20703125 2.15234375 C0.60955078 1.08693359 0.60955078 1.08693359 0 0 Z " fill="#36281F" transform="translate(329,322)"/>
<path d="M0 0 C0.33 0.66 0.66 1.32 1 2 C0.34 2 -0.32 2 -1 2 C-1 2.66 -1 3.32 -1 4 C-1.66 4 -2.32 4 -3 4 C-3.33 4.99 -3.66 5.98 -4 7 C-4.99 7.33 -5.98 7.66 -7 8 C-6.25 3.25 -6.25 3.25 -4 1 C-1.875 0.375 -1.875 0.375 0 0 Z " fill="#40211A" transform="translate(313,80)"/>
<path d="M0 0 C4.59216906 4.06734974 7.2167907 8.56385928 10 14 C8.078125 13.1953125 8.078125 13.1953125 6 12 C4.75 8.875 4.75 8.875 4 6 C3.34 6 2.68 6 2 6 C1.34 4.02 0.68 2.04 0 0 Z " fill="#D55B5F" transform="translate(233,304)"/>
<path d="M0 0 C1.9375 0.375 1.9375 0.375 4 1 C4.33 1.66 4.66 2.32 5 3 C7.64 3 10.28 3 13 3 C11.30571106 5.14015445 10.31274259 5.92592939 7.625 6.5625 C3.59167947 5.69821703 2.39175249 3.2801177 0 0 Z " fill="#422F1B" transform="translate(338,335)"/>
<path d="M0 0 C8.44646925 6.15034169 8.44646925 6.15034169 12 10 C8.10635283 9.42316338 5.98810959 7.45178223 3 5 C2.01 4.67 1.02 4.34 0 4 C0 2.68 0 1.36 0 0 Z " fill="#E1C996" transform="translate(346,184)"/>
<path d="M0 0 C0.99 0.33 1.98 0.66 3 1 C3.33 2.65 3.66 4.3 4 6 C4.66 6 5.32 6 6 6 C6.33 7.65 6.66 9.3 7 11 C6.01 11.495 6.01 11.495 5 12 C3.35 8.04 1.7 4.08 0 0 Z " fill="#E5C98D" transform="translate(277,423)"/>
<path d="M0 0 C0.99 0.495 0.99 0.495 2 1 C3.54023996 1.06950541 5.08334988 1.08452357 6.625 1.0625 C7.44226563 1.05347656 8.25953125 1.04445313 9.1015625 1.03515625 C9.72804688 1.02355469 10.35453125 1.01195312 11 1 C10.67 1.99 10.34 2.98 10 4 C2.25 4.125 2.25 4.125 0 3 C0 2.01 0 1.02 0 0 Z " fill="#D3BF88" transform="translate(285,377)"/>
<path d="M0 0 C0.66 0.33 1.32 0.66 2 1 C1.68289062 1.70511719 1.36578125 2.41023438 1.0390625 3.13671875 C-0.04538286 6.12505879 -0.3964359 8.65069658 -0.625 11.8125 C-0.69976562 12.78832031 -0.77453125 13.76414062 -0.8515625 14.76953125 C-0.90054688 15.50558594 -0.94953125 16.24164063 -1 17 C-1.33 17 -1.66 17 -2 17 C-2.05383848 14.54137599 -2.09359038 12.0839245 -2.125 9.625 C-2.14175781 8.92632812 -2.15851563 8.22765625 -2.17578125 7.5078125 C-2.19344267 5.67102514 -2.10303261 3.83398037 -2 2 C-1.34 1.34 -0.68 0.68 0 0 Z " fill="#4A3A28" transform="translate(237,259)"/>
<path d="M0 0 C0.99 0.33 1.98 0.66 3 1 C3.33 2.65 3.66 4.3 4 6 C4.99 6.33 5.98 6.66 7 7 C6.67 8.32 6.34 9.64 6 11 C4.99126984 9.73608512 3.99328178 8.46359117 3 7.1875 C2.443125 6.47980469 1.88625 5.77210938 1.3125 5.04296875 C0 3 0 3 0 0 Z " fill="#DDC992" transform="translate(284,348)"/>
<path d="M0 0 C2.96404505 2.80804268 5.44499019 5.18315774 7 9 C6.01 10.485 6.01 10.485 5 12 C4.16180842 10.37750059 3.3295884 8.75191503 2.5 7.125 C2.0359375 6.22007812 1.571875 5.31515625 1.09375 4.3828125 C0 2 0 2 0 0 Z " fill="#DC575C" transform="translate(247,324)"/>
<path d="M0 0 C4.75 1.875 4.75 1.875 7 3 C7 3.99 7 4.98 7 6 C7.99 6.33 8.98 6.66 10 7 C9.34 7.66 8.68 8.32 8 9 C6.66368764 7.6905332 5.33102075 6.37734515 4 5.0625 C3.2575 4.33160156 2.515 3.60070312 1.75 2.84765625 C0 1 0 1 0 0 Z " fill="#392712" transform="translate(358,193)"/>
<path d="M0 0 C2.49505962 2.49505962 2.35948376 3.67328888 2.625 7.125 C2.69976562 8.03507812 2.77453125 8.94515625 2.8515625 9.8828125 C2.92503906 10.93082031 2.92503906 10.93082031 3 12 C0.89366282 10.29171079 0.06198392 9.47851584 -0.29296875 6.73828125 C-0.25816406 5.93777344 -0.22335937 5.13726562 -0.1875 4.3125 C-0.16042969 3.50425781 -0.13335937 2.69601562 -0.10546875 1.86328125 C-0.07066406 1.24839844 -0.03585937 0.63351562 0 0 Z " fill="#493523" transform="translate(289,460)"/>
<path d="M0 0 C0.66 0 1.32 0 2 0 C2 1.65 2 3.3 2 5 C1.01 5.33 0.02 5.66 -1 6 C-1.73323796 8.01508358 -1.73323796 8.01508358 -2 10 C-3 8 -3 8 -2.44140625 6.0546875 C-2.15136719 5.33539063 -1.86132812 4.61609375 -1.5625 3.875 C-1.27503906 3.15054687 -0.98757813 2.42609375 -0.69140625 1.6796875 C-0.46324219 1.12539063 -0.23507812 0.57109375 0 0 Z " fill="#413321" transform="translate(410,344)"/>
<path d="M0 0 C0.99 0.33 1.98 0.66 3 1 C3.34342449 2.33076989 3.67619874 3.66431979 4 5 C4.99 5.66 5.98 6.32 7 7 C6.67 8.32 6.34 9.64 6 11 C5.17977251 9.92250558 4.36913831 8.83770492 3.5625 7.75 C3.11003906 7.14671875 2.65757812 6.5434375 2.19140625 5.921875 C0.96099003 3.93707244 0.43887332 2.28012345 0 0 Z " fill="#F2CB9A" transform="translate(269,326)"/>
<path d="M0 0 C0.99 0.33 1.98 0.66 3 1 C3 1.66 3 2.32 3 3 C3.99 3 4.98 3 6 3 C6.33 4.32 6.66 5.64 7 7 C6.01 7 5.02 7 4 7 C0 2.65714286 0 2.65714286 0 0 Z " fill="#2A2410" transform="translate(385,220)"/>
<path d="M0 0 C1.32087692 2.17556199 2.07112439 3.43100487 1.75 6 C0.96806166 8.0851689 0.00842205 10.01621892 -1 12 C-1.02698189 10.37509046 -1.04638757 8.75005367 -1.0625 7.125 C-1.07410156 6.22007812 -1.08570313 5.31515625 -1.09765625 4.3828125 C-1 2 -1 2 0 0 Z " fill="#3F3021" transform="translate(396,454)"/>
<path d="M0 0 C2 0 2 0 4.625 2.1875 C7 5 7 5 7.3125 7.8125 C7.209375 8.534375 7.10625 9.25625 7 10 C3.66442368 7.0094833 1.84916079 4.06815373 0 0 Z " fill="#DFC28A" transform="translate(263,319)"/>
<path d="M0 0 C0.66 0.99 1.32 1.98 2 3 C1.71125 3.556875 1.4225 4.11375 1.125 4.6875 C-0.0413253 7.08494645 -1.0339881 9.51596939 -2 12 C-2.66 11.67 -3.32 11.34 -4 11 C-2.68 7.37 -1.36 3.74 0 0 Z " fill="#4C201E" transform="translate(225,252)"/>
<path d="M0 0 C2.64752004 2.57784846 4.94432065 4.91648098 7 8 C4.69 7.34 2.38 6.68 0 6 C0 4.02 0 2.04 0 0 Z " fill="#E7CF95" transform="translate(280,254)"/>
<path d="M0 0 C4.87685861 1.35468295 6.48592381 3.71675909 9 8 C4.7257442 6.4169423 2.73468206 3.49431596 0 0 Z " fill="#422A1C" transform="translate(373,208)"/>
<path d="M0 0 C2.50298434 2.93828597 3.46930939 5.17902761 4 9 C1.33264727 6.51047079 -0.55746343 4.36591866 -2 1 C-1.34 0.67 -0.68 0.34 0 0 Z " fill="#491F19" transform="translate(244,315)"/>
<path d="M0 0 C1.9375 0.3125 1.9375 0.3125 4 1 C4.33 1.99 4.66 2.98 5 4 C5.66 4.33 6.32 4.66 7 5 C6.67 5.99 6.34 6.98 6 8 C3.33264727 5.51047079 1.44253657 3.36591866 0 0 Z " fill="#392B1B" transform="translate(285,259)"/>
<path d="M0 0 C2 3 2 3 2 5 C-0.97 5 -3.94 5 -7 5 C-7 4.67 -7 4.34 -7 4 C-6.030625 3.71125 -5.06125 3.4225 -4.0625 3.125 C-0.89335797 2.35785318 -0.89335797 2.35785318 0 0 Z " fill="#252209" transform="translate(398,493)"/>
<path d="M0 0 C0.99 0 1.98 0 3 0 C3 0.99 3 1.98 3 3 C3.66 3 4.32 3 5 3 C4.67 4.32 4.34 5.64 4 7 C0 2.25 0 2.25 0 0 Z " fill="#30230D" transform="translate(278,366)"/>
<path d="M0 0 C0 2.31 0 4.62 0 7 C-1.37562854 5.71034824 -2.70766393 4.37310707 -4 3 C-4 2.34 -4 1.68 -4 1 C-2 0 -2 0 0 0 Z " fill="#E8CD98" transform="translate(280,336)"/>
</svg>
