<?xml version="1.0" encoding="UTF-8"?>
<svg version="1.1" xmlns="http://www.w3.org/2000/svg" width="512" height="512">
<path d="M0 0 C0.78211294 -0.00453111 1.56422589 -0.00906223 2.37003922 -0.01373065 C4.98147435 -0.02635485 7.5927004 -0.02475556 10.2041626 -0.02310181 C12.08042671 -0.02908835 13.95668836 -0.03589419 15.83294678 -0.04345703 C20.92402284 -0.06111278 26.01503165 -0.06581227 31.10613537 -0.0670886 C34.28927241 -0.06851116 37.4723924 -0.07278277 40.65552521 -0.07808304 C51.76745182 -0.09658287 62.87933047 -0.10475383 73.99127197 -0.10317993 C84.33751553 -0.10197899 94.68355031 -0.12307226 105.02974105 -0.15466726 C113.92167443 -0.18085037 122.81353971 -0.19154635 131.70551133 -0.19026911 C137.01214072 -0.18976002 142.3185846 -0.19541394 147.62517548 -0.21662521 C152.61900257 -0.23604146 157.61246786 -0.23610885 162.60630798 -0.22159195 C164.43398316 -0.21950687 166.26168118 -0.22418676 168.08931732 -0.23631287 C179.94081844 -0.30982142 190.41331384 0.05390767 199.52545166 8.56430054 C205.64437156 15.37003797 208.37242289 22.44523297 208.13330078 31.62057495 C208.11792621 32.33957395 208.10255164 33.05857295 208.08671117 33.7993598 C208.05201029 35.36851057 208.01249647 36.93756061 207.96874046 38.50648499 C207.87268354 41.95885239 207.8002668 45.41161899 207.72596693 48.86451244 C207.6856783 50.72488087 207.64416018 52.58522301 207.60149813 54.44553852 C207.3297218 66.44649366 207.2146816 78.44946814 207.09068823 90.45270252 C206.96914664 102.11479377 206.80046934 113.77115204 206.47613525 125.42953491 C206.21830686 134.70784866 206.07080498 143.98090401 206.04635453 153.26286077 C206.02956842 158.16241284 205.96232587 163.04793009 205.76073456 167.94364929 C204.67365572 192.23451437 204.67365572 192.23451437 215.62762451 213.09237671 C221.18822395 219.08503137 227.3437803 224.34436768 233.67119861 229.50324297 C241.70675028 236.19687011 247.55105499 244.82921949 251.49420166 254.51742554 C251.9466626 255.59508179 252.39912354 256.67273804 252.86529541 257.78305054 C255.46407986 265.38342998 256.35524707 272.4760568 256.347229 280.48690796 C256.35394623 281.4672551 256.36066345 282.44760223 256.36758423 283.45765686 C256.38648262 286.67945525 256.39048572 289.901044 256.39263916 293.12289429 C256.39907765 295.38903383 256.40580677 297.65517256 256.41281128 299.92131042 C256.42476733 304.67138591 256.42849431 309.42138881 256.42730713 314.17147827 C256.42710517 320.19688115 256.4542867 326.22180581 256.48885155 332.24709606 C256.51133311 336.93263288 256.51513807 341.61805901 256.51408768 346.30364418 C256.51641647 348.52113793 256.52508221 350.73863606 256.54075241 352.95607567 C256.66490897 372.35681856 254.56984621 390.92150393 247.99420166 409.26742554 C247.65582275 410.26258179 247.31744385 411.25773804 246.96881104 412.28305054 C244.45367411 419.56089354 244.45367411 419.56089354 242.51654053 423.00860596 C240.89927915 426.6188421 240.68450529 429.00791488 240.68780518 432.94369507 C240.68092178 434.25170074 240.67403839 435.55970642 240.66694641 436.90734863 C240.67012438 437.59874058 240.67330235 438.29013252 240.67657661 439.00247574 C240.68573421 441.18027355 240.67541299 443.35721915 240.65995789 445.53497314 C240.61997418 451.72230834 240.61866043 457.90957241 240.62091064 464.09701538 C240.62096174 467.89071914 240.6018056 471.68395871 240.57157707 475.47753525 C240.56075824 477.62046074 240.57287371 479.76249865 240.58540344 481.90539551 C240.57536789 483.20709686 240.56533234 484.50879822 240.55499268 485.84994507 C240.55515884 486.9954483 240.55532501 488.14095154 240.55549622 489.32116699 C239.93536378 492.98413901 238.91120262 493.9562344 236.05670166 496.26742554 C233.70159912 496.7707901 233.70159912 496.7707901 231.04693604 496.77536011 C229.53281128 496.79227905 229.53281128 496.79227905 227.98809814 496.80953979 C226.8866748 496.80144287 225.78525146 496.79334595 224.65045166 496.78500366 C222.90357056 496.79551758 222.90357056 496.79551758 221.12139893 496.8062439 C217.26625833 496.82386986 213.41184992 496.81218394 209.55670166 496.79867554 C206.88156213 496.80136911 204.20644497 496.80524407 201.53131104 496.81027222 C195.92250616 496.81754751 190.31391203 496.80796425 184.70513916 496.78890991 C178.22252259 496.76714111 171.74040924 496.77419258 165.25780487 496.79621553 C159.68993577 496.81437313 154.12221807 496.81692619 148.55432892 496.80646086 C145.22974496 496.80022776 141.90544914 496.80095752 138.58087158 496.81260681 C134.87455009 496.82274302 131.16920059 496.80731038 127.46295166 496.78500366 C126.36152832 496.79310059 125.26010498 496.80119751 124.12530518 496.80953979 C123.11588867 496.7982605 122.10647217 496.7869812 121.06646729 496.77536011 C120.19042847 496.77385201 119.31438965 496.7723439 118.4118042 496.7707901 C115.25745562 496.0965998 114.04527816 494.75481057 112.05670166 492.26742554 C111.59155273 489.4172821 111.59155273 489.4172821 111.63775635 486.08114624 C111.64385925 484.82916946 111.64996216 483.57719269 111.65625 482.28727722 C111.67449451 481.28726653 111.67449451 481.28726653 111.6931076 480.2670536 C111.72901283 478.16770426 111.73651134 476.06999024 111.73596191 473.97035217 C111.73857884 468.00320181 111.78469927 462.03696768 111.86773682 456.07040405 C111.91661927 452.41491709 111.92606808 448.76097558 111.91214752 445.10521507 C111.91474028 443.71978978 111.93220537 442.33430221 111.96547699 440.94927406 C112.13608413 433.73508903 112.10075139 428.61617987 107.15240479 423.06845093 C105.79191983 421.79634401 104.4271615 420.52878004 103.05670166 419.26742554 C93.81312245 406.7537939 88.86085566 391.72293912 89.05670166 376.26742554 C88.18102539 376.30670166 88.18102539 376.30670166 87.28765869 376.34677124 C64.55896447 377.23303326 64.55896447 377.23303326 56.02154541 369.40023804 C48.69519746 361.66770653 47.54594096 355.37229833 47.76373291 344.87680054 C48.20399735 339.45274268 49.33090613 335.35028221 52.86920166 331.07992554 C53.26107666 330.48180054 53.65295166 329.88367554 54.05670166 329.26742554 C53.4298413 326.7599841 52.37516746 324.78297961 51.02154541 322.59164429 C48.51352282 318.24979873 47.8361124 315.03953448 47.93951416 309.99008179 C47.96489258 308.37951904 47.96489258 308.37951904 47.99078369 306.73641968 C48.01253662 305.92165161 48.03428955 305.10688354 48.05670166 304.26742554 C47.37733551 304.27630798 46.69796936 304.28519043 45.99801636 304.29434204 C38.8921759 304.38321234 31.78649476 304.44332419 24.68023682 304.4871521 C22.03238506 304.50719933 19.3845772 304.53444438 16.73687744 304.56918335 C12.91889578 304.61800297 9.1015023 304.64046434 5.28326416 304.65805054 C4.10994537 304.67869568 2.93662659 304.69934082 1.72775269 304.72061157 C-7.98206121 304.72322988 -16.17197711 302.73250386 -23.41204834 295.97055054 C-30.47560378 288.11414703 -32.24360414 280.21101156 -32.21072388 269.8944397 C-32.21525499 268.8509794 -32.2197861 267.80751911 -32.22445452 266.7324388 C-32.23711297 263.23656903 -32.23547719 259.74085476 -32.23382568 256.2449646 C-32.23981005 253.73816731 -32.24661538 251.23137187 -32.25418091 248.72457886 C-32.27002189 242.62194367 -32.27628975 236.51936542 -32.27740566 230.4167116 C-32.27835698 225.45412 -32.28247145 220.49154112 -32.28880692 215.52895355 C-32.3064157 201.44864535 -32.31564646 187.36836759 -32.31414597 173.2880483 C-32.31406605 172.52939708 -32.31398614 171.77074587 -32.31390381 170.98910522 C-32.31382205 170.22952396 -32.31374029 169.46994269 -32.31365605 168.68734381 C-32.31284345 156.3821619 -32.33197532 144.07710248 -32.36018054 131.771956 C-32.38893541 119.12687027 -32.40271938 106.48184423 -32.40099299 93.836725 C-32.40032994 86.74159429 -32.40578463 79.64659198 -32.42734909 72.55149078 C-32.44750643 65.87673551 -32.44686064 59.20229588 -32.43231583 52.5275116 C-32.4302257 50.08061578 -32.43494067 47.63370305 -32.44703674 45.18683624 C-32.46250574 41.84035553 -32.45316905 38.49480704 -32.43777466 35.14834595 C-32.44806178 34.18548432 -32.45834891 33.22262269 -32.46894777 32.23058343 C-32.37850244 23.30208332 -29.81595544 15.40443718 -23.64642334 8.79867554 C-16.67513172 2.53090876 -9.3456737 -0.04004829 0 0 Z " fill="#010000" transform="translate(143.94329833984375,7.732574462890625)"/>
<path d="M0 0 C0.75222708 -0.00367669 1.50445415 -0.00735338 2.27947599 -0.01114148 C4.81354683 -0.02220144 7.3475767 -0.02602608 9.88166809 -0.02983093 C11.69324372 -0.0360939 13.50481807 -0.04274055 15.31639099 -0.04974365 C20.24839898 -0.06717032 25.18039726 -0.07771023 30.11242843 -0.08594918 C33.19299918 -0.09109645 36.2735669 -0.09717234 39.35413551 -0.10346031 C48.99008315 -0.12251815 58.62602309 -0.13674729 68.26198596 -0.14507228 C79.38927546 -0.15484396 90.51636599 -0.18115923 101.64358538 -0.22157317 C110.24069329 -0.25172723 118.83774415 -0.26654054 127.43490392 -0.26985329 C132.57104358 -0.27220484 137.70697083 -0.28117876 142.84305382 -0.30631447 C147.67675463 -0.32958732 152.51010306 -0.33383155 157.34384537 -0.32355309 C159.11634429 -0.3230574 160.8888605 -0.32938741 162.66130638 -0.34310913 C165.0851725 -0.36082124 167.50777315 -0.35372603 169.93164062 -0.34057617 C170.62971193 -0.35154542 171.32778324 -0.36251466 172.04700822 -0.37381631 C177.43581207 -0.30344881 180.42612019 1.20315775 184.78327942 4.14717102 C188.15534612 7.87419211 189.90560138 10.26049004 189.9175005 15.26243877 C189.92195834 16.12946948 189.92641618 16.99650018 189.93100911 17.88980454 C189.93082475 18.84805015 189.93064039 19.80629575 189.93045044 20.7935791 C189.93412713 21.80715353 189.93780382 22.82072796 189.94159192 23.86501676 C189.95266239 27.2835361 189.95647829 30.70202508 189.96028137 34.12055969 C189.96654349 36.56266884 189.97319007 39.00477702 189.98019409 41.44688416 C189.99944722 48.79208707 190.01002652 56.13728192 190.01892188 63.48250267 C190.02330381 66.94089455 190.02867092 70.39928489 190.03391075 73.85767555 C190.05092502 85.35359854 190.06541888 96.84952057 190.07265949 108.34545422 C190.07456942 111.32957142 190.07648974 114.31368861 190.07844543 117.29780579 C190.07892917 118.03950169 190.07941291 118.78119759 190.07991131 119.54536913 C190.08821043 131.55860014 190.11354441 143.57173154 190.14602611 155.58491906 C190.17909789 167.91684351 190.19710841 180.24871735 190.20030373 192.58068639 C190.20246888 199.50532252 190.21121787 206.42981344 190.23676491 213.35440636 C190.26074363 219.86900675 190.26429681 226.38339276 190.25400352 232.89804459 C190.25350696 235.28976243 190.25986281 237.68149294 190.27355957 240.07317162 C190.29120953 243.33771107 190.28420548 246.60130516 190.27102661 249.86584473 C190.28199586 250.81293672 190.2929651 251.76002872 190.30426675 252.73582047 C190.245799 258.73236165 189.26818279 262.22852036 185.78327942 267.14717102 C181.68056405 270.94968771 178.66298723 272.28016279 173.11531067 272.24482727 C172.22263489 272.24160461 171.32995911 272.23838196 170.41023254 272.23506165 C169.48146301 272.22668274 168.55269348 272.21830383 167.59577942 272.20967102 C166.65540833 272.2051593 165.71503723 272.20064758 164.74617004 272.19599915 C162.42514229 272.18421728 160.10424297 272.1677666 157.78327942 272.14717102 C157.76926086 270.45358459 157.76926086 270.45358459 157.75495911 268.7257843 C157.7147705 264.49476682 157.64893478 260.26445461 157.57575989 256.03388977 C157.5477164 254.21074048 157.52642006 252.38747336 157.51228333 250.56416321 C157.43073475 232.82040478 157.43073475 232.82040478 148.75593567 217.74873352 C140.00753103 210.64606837 129.83473655 208.06786778 118.78327942 209.14717102 C109.92124227 211.6365073 102.48125549 217.15056783 97.79109192 225.02217102 C95.03239561 230.83895704 94.45816216 235.93404711 94.36921692 242.26435852 C94.34985077 243.12151459 94.33048462 243.97867065 94.31053162 244.86180115 C94.25106686 247.5818253 94.20448372 250.30189254 94.15827942 253.02217102 C94.12006912 254.8737513 94.08101563 256.72531439 94.04109192 258.57685852 C93.94539278 263.10015527 93.86124036 267.62353518 93.78327942 272.14717102 C80.8485576 272.21669106 67.91388025 272.26999263 54.97900963 272.30260754 C48.97278111 272.31826129 42.96668045 272.33949459 36.96052551 272.37348938 C31.16391875 272.4060927 25.36743494 272.42402622 19.57074356 272.43180275 C17.35956003 272.43734447 15.14838321 272.44816606 12.93725204 272.46436119 C9.83939333 272.48614801 6.7420423 272.48913737 3.64411926 272.48774719 C2.27386597 272.50392593 2.27386597 272.50392593 0.87593079 272.52043152 C-4.95710832 272.49211982 -9.37378875 271.74024899 -13.86125183 267.64717102 C-16.95807184 263.66998412 -18.33981395 260.92950558 -18.34814835 255.9216795 C-18.35198949 255.05552444 -18.35583064 254.18936939 -18.35978818 253.29696721 C-18.3589217 252.34484327 -18.35805521 251.39271934 -18.35716248 250.41174316 C-18.3601336 249.4006923 -18.36310472 248.38964143 -18.36616588 247.34795266 C-18.37487032 243.94402173 -18.3763626 240.54012589 -18.37785339 237.13618469 C-18.38248031 234.70215784 -18.3875048 232.26813172 -18.39289856 229.83410645 C-18.40603623 223.21012637 -18.41250668 216.58615361 -18.41690922 209.96216369 C-18.4196715 205.82645206 -18.42390882 201.69074277 -18.42841339 197.55503273 C-18.44060607 186.10538854 -18.45090543 174.65574623 -18.45428848 163.2060957 C-18.45450805 162.47324284 -18.45472761 161.74038999 -18.45495383 160.98532947 C-18.45517211 160.25071942 -18.45539039 159.51610938 -18.45561528 158.75923842 C-18.45605875 157.27062937 -18.45650531 155.78202031 -18.45695496 154.29341125 C-18.45717639 153.55500916 -18.45739782 152.81660706 -18.45762596 152.05582915 C-18.46157415 140.09050465 -18.47902881 128.12524105 -18.50231448 116.15994009 C-18.52602626 103.87657891 -18.53849025 91.5932483 -18.5396564 79.30986387 C-18.54057325 72.41269033 -18.54632808 65.51559613 -18.56447601 58.61844444 C-18.58148371 52.13176358 -18.5831309 45.64519319 -18.57433701 39.15849495 C-18.57356458 36.7760363 -18.57793628 34.39356967 -18.58779526 32.01113129 C-18.6004545 28.76175645 -18.59467043 25.51292051 -18.58421326 22.2635498 C-18.59226966 21.31811804 -18.60032607 20.37268627 -18.6086266 19.39860505 C-18.56422579 13.50994614 -17.87680566 8.9967787 -13.68156433 4.50263977 C-8.74480242 0.7274689 -6.09197914 -0.00158361 0 0 Z " fill="#FED83F" transform="translate(146.2167205810547,23.852828979492188)"/>
<path d="M0 0 C1.09964417 0.93736102 2.19853493 1.87560592 3.29711914 2.81420898 C3.90914688 3.33659653 4.52117462 3.85898407 5.15174866 4.39720154 C18.82854244 16.25767935 30.38547582 29.53090528 32.22867775 48.33264732 C32.58171113 54.67361995 32.51037981 61.0191094 32.4609375 67.3671875 C32.45854607 69.41635013 32.45764923 71.46551499 32.4581604 73.51467896 C32.45505037 77.78938729 32.43862779 82.063756 32.41162109 86.33837891 C32.37768804 91.77335684 32.36999268 97.2079625 32.37151146 102.64303398 C32.37096324 106.86938931 32.35992366 111.09566591 32.34550858 115.32199478 C32.33921647 117.32392916 32.33521982 119.32587231 32.33372116 121.32781601 C32.30768156 137.92877437 31.34637797 153.38895765 26.1875 169.3125 C25.85685547 170.38822266 25.52621094 171.46394531 25.18554688 172.57226562 C22.5396991 180.96686517 22.5396991 180.96686517 20.77549744 184.34403992 C16.85726267 191.99709713 16.26505065 198.45642372 16.29296875 206.98046875 C16.27834595 208.12922485 16.26372314 209.27798096 16.24865723 210.46154785 C16.20171791 214.70332118 16.19701872 218.94547765 16.1875 223.1875 C16.125625 232.695625 16.06375 242.20375 16 252 C-15.68 252 -47.36 252 -80 252 C-80.0625 223 -80.0625 223 -80.02758789 213.88671875 C-80.04820198 211.48695405 -80.07138635 209.08720945 -80.09765625 206.6875 C-80.08343628 205.45451172 -80.06921631 204.22152344 -80.05456543 202.95117188 C-80.15253548 196.92449244 -80.37969277 192.94841529 -84.42895508 188.29223633 C-85.59841057 187.17258626 -86.7862686 186.07149359 -88 185 C-98.16563625 173.21798864 -103.85534576 159.04160149 -103.47924805 143.3359375 C-103.23812083 140.1880988 -102.60280654 137.41825693 -101.65454102 134.40966797 C-95.1820859 113.48189981 -96.23403382 92.12276225 -96.35760498 70.44897461 C-96.40364614 62.14735053 -96.41855143 53.84608339 -96.39805984 45.54436302 C-96.3984306 42.66683272 -96.42407809 39.79029703 -96.45175171 36.91291809 C-96.45243625 35.15459198 -96.45213437 33.3962651 -96.45068359 31.63793945 C-96.46514023 30.84787003 -96.47959686 30.0578006 -96.49449158 29.24378967 C-96.45750994 24.03850863 -95.40301191 21.14987163 -92 17 C-87.24452509 12.81065305 -84.53353137 11.68936648 -78.3125 11.7890625 C-73.38735471 12.23831562 -70.31438217 14.41892505 -67.1875 18.0625 C-63.6892613 22.76013483 -63.84344152 26.18486599 -63.82641602 31.88427734 C-63.819729 32.80473343 -63.81304199 33.72518951 -63.80615234 34.67353821 C-63.79208188 36.67661581 -63.78019422 38.67970963 -63.77020454 40.68281174 C-63.75382635 43.851396 -63.73058983 47.01986007 -63.70530701 50.18838501 C-63.63444296 59.19877152 -63.57438675 68.20920725 -63.52319336 77.21972656 C-63.49142251 82.72692647 -63.45015088 88.23398879 -63.40299797 93.74107742 C-63.3869655 95.84222567 -63.37464971 97.94340564 -63.36609077 100.04459763 C-63.35395289 102.98218523 -63.3298091 105.91944874 -63.30297852 108.85693359 C-63.30238937 109.72773056 -63.30180023 110.59852753 -63.30119324 111.49571228 C-63.28661575 112.69864174 -63.28661575 112.69864174 -63.27174377 113.9258728 C-63.26751184 114.62015066 -63.2632799 115.31442852 -63.25891972 116.0297451 C-62.94432865 118.42363226 -62.33522678 119.98695592 -61 122 C-57.50715848 122.90555151 -55.07572966 123.36801278 -51.625 122.1875 C-49.84911756 121.08014273 -49.84911756 121.08014273 -49 119 C-48.88273341 117.61182327 -48.82318594 116.21851286 -48.79467773 114.82568359 C-48.77473251 113.96494232 -48.75478729 113.10420105 -48.73423767 112.21737671 C-48.71752518 111.28712677 -48.70081268 110.35687683 -48.68359375 109.3984375 C-48.66281265 108.44683746 -48.64203156 107.49523743 -48.62062073 106.51480103 C-48.55511867 103.46827568 -48.4962372 100.42166257 -48.4375 97.375 C-48.39431541 95.31249084 -48.35070114 93.24999063 -48.30664062 91.1875 C-48.1994366 86.12509046 -48.09817098 81.06259245 -48 76 C-47.15405273 75.970271 -47.15405273 75.970271 -46.29101562 75.93994141 C-43.69360426 75.84368189 -41.09688897 75.73441948 -38.5 75.625 C-37.613125 75.5940625 -36.72625 75.563125 -35.8125 75.53125 C-26.04406998 75.10028985 -17.83682606 73.15656855 -10 67 C-2.4465339 58.43307094 -0.55557962 49.36506277 -0.48828125 38.28125 C-0.46135445 36.633526 -0.46135445 36.633526 -0.43388367 34.95251465 C-0.38000803 31.46838132 -0.3459574 27.98438321 -0.3125 24.5 C-0.27930692 22.12758545 -0.24481544 19.75518868 -0.20898438 17.3828125 C-0.12429469 11.58866298 -0.05584906 5.79449546 0 0 Z " fill="#F6E0C2" transform="translate(352,236)"/>
<path d="M0 0 C0.75222708 -0.00367669 1.50445415 -0.00735338 2.27947599 -0.01114148 C4.81354683 -0.02220144 7.3475767 -0.02602608 9.88166809 -0.02983093 C11.69324372 -0.0360939 13.50481807 -0.04274055 15.31639099 -0.04974365 C20.24839898 -0.06717032 25.18039726 -0.07771023 30.11242843 -0.08594918 C33.19299918 -0.09109645 36.2735669 -0.09717234 39.35413551 -0.10346031 C48.99008315 -0.12251815 58.62602309 -0.13674729 68.26198596 -0.14507228 C79.38927546 -0.15484396 90.51636599 -0.18115923 101.64358538 -0.22157317 C110.24069329 -0.25172723 118.83774415 -0.26654054 127.43490392 -0.26985329 C132.57104358 -0.27220484 137.70697083 -0.28117876 142.84305382 -0.30631447 C147.67675463 -0.32958732 152.51010306 -0.33383155 157.34384537 -0.32355309 C159.11634429 -0.3230574 160.8888605 -0.32938741 162.66130638 -0.34310913 C165.0851725 -0.36082124 167.50777315 -0.35372603 169.93164062 -0.34057617 C170.62971193 -0.35154542 171.32778324 -0.36251466 172.04700822 -0.37381631 C178.47483681 -0.28988112 182.45720563 2.1700083 187.28327942 6.27217102 C189.54437188 10.60593158 188.62160355 14.45437834 187.78327942 19.14717102 C186.15827942 19.83467102 186.15827942 19.83467102 183.78327942 20.14717102 C182.88758932 19.66684009 181.99189922 19.18650915 181.069067 18.69162273 C177.35494807 16.94583814 174.92031538 16.76408157 170.8356781 16.7484436 C169.8234344 16.73847336 169.8234344 16.73847336 168.79074132 16.7283017 C166.54281818 16.7097366 164.29543034 16.71227248 162.04743958 16.71479797 C160.43080396 16.70577681 158.81417518 16.69544872 157.19755554 16.68391418 C152.81786711 16.65635955 148.43830852 16.64706176 144.05854464 16.64106011 C139.47807969 16.63167246 134.89771158 16.60546873 130.31730652 16.58105469 C121.64769676 16.5373968 112.9781058 16.50884546 104.30841959 16.4857313 C94.43658665 16.45867584 84.56485116 16.41476453 74.69308782 16.36944258 C54.38987078 16.27660648 34.08662458 16.20492098 13.78327942 16.14717102 C13.78327942 16.80717102 13.78327942 17.46717102 13.78327942 18.14717102 C12.46327942 18.14717102 11.14327942 18.14717102 9.78327942 18.14717102 C9.78327942 18.80717102 9.78327942 19.46717102 9.78327942 20.14717102 C8.13327942 20.47717102 6.48327942 20.80717102 4.78327942 21.14717102 C4.45327942 22.46717102 4.12327942 23.78717102 3.78327942 25.14717102 C3.12327942 25.14717102 2.46327942 25.14717102 1.78327942 25.14717102 C1.65952942 25.91029602 1.53577942 26.67342102 1.40827942 27.45967102 C0.78327942 30.14717102 0.78327942 30.14717102 -1.21672058 33.14717102 C-1.41325268 36.15939733 -1.49048845 39.0792475 -1.47741699 42.09208679 C-1.48124254 43.01808862 -1.48506809 43.94409045 -1.48900956 44.89815295 C-1.49936342 48.01425638 -1.49534287 51.13017636 -1.49137878 54.24629211 C-1.49572396 56.47504854 -1.50090645 58.70380346 -1.50686646 60.93255615 C-1.52028921 66.99658717 -1.52083144 73.06055599 -1.51830316 79.12459898 C-1.51723557 84.18192634 -1.5221114 89.239241 -1.52690858 94.29656565 C-1.53865092 106.90830988 -1.53777223 119.52001593 -1.53135177 132.1317596 C-1.52618342 143.08575564 -1.53743474 154.03966274 -1.55644999 164.99364118 C-1.57582068 176.23852044 -1.58379411 187.48335875 -1.58032674 198.72825873 C-1.57851095 205.04245139 -1.58117936 211.35656261 -1.59504128 217.67074203 C-1.60758791 223.60835012 -1.60570546 229.54577984 -1.59263039 235.48338509 C-1.59025808 237.66469062 -1.59302259 239.84600858 -1.60125351 242.02729988 C-1.61166733 245.00117141 -1.6036633 247.97443855 -1.59094238 250.94828796 C-1.59831667 251.81492266 -1.60569095 252.68155736 -1.6132887 253.57445371 C-1.56995942 258.37744805 -1.05020281 261.1132819 1.78327942 265.14717102 C2.47077942 268.95967102 2.47077942 268.95967102 2.78327942 272.14717102 C-2.97561693 272.4927048 -7.27841439 272.51419797 -12.21672058 269.14717102 C-15.43514116 265.95491647 -18.03754137 262.89257419 -18.34437108 258.19129628 C-18.34561758 257.44232274 -18.34686408 256.6933492 -18.34814835 255.9216795 C-18.35198949 255.05552444 -18.35583064 254.18936939 -18.35978818 253.29696721 C-18.3589217 252.34484327 -18.35805521 251.39271934 -18.35716248 250.41174316 C-18.3601336 249.4006923 -18.36310472 248.38964143 -18.36616588 247.34795266 C-18.37487032 243.94402173 -18.3763626 240.54012589 -18.37785339 237.13618469 C-18.38248031 234.70215784 -18.3875048 232.26813172 -18.39289856 229.83410645 C-18.40603623 223.21012637 -18.41250668 216.58615361 -18.41690922 209.96216369 C-18.4196715 205.82645206 -18.42390882 201.69074277 -18.42841339 197.55503273 C-18.44060607 186.10538854 -18.45090543 174.65574623 -18.45428848 163.2060957 C-18.45450805 162.47324284 -18.45472761 161.74038999 -18.45495383 160.98532947 C-18.45517211 160.25071942 -18.45539039 159.51610938 -18.45561528 158.75923842 C-18.45605875 157.27062937 -18.45650531 155.78202031 -18.45695496 154.29341125 C-18.45717639 153.55500916 -18.45739782 152.81660706 -18.45762596 152.05582915 C-18.46157415 140.09050465 -18.47902881 128.12524105 -18.50231448 116.15994009 C-18.52602626 103.87657891 -18.53849025 91.5932483 -18.5396564 79.30986387 C-18.54057325 72.41269033 -18.54632808 65.51559613 -18.56447601 58.61844444 C-18.58148371 52.13176358 -18.5831309 45.64519319 -18.57433701 39.15849495 C-18.57356458 36.7760363 -18.57793628 34.39356967 -18.58779526 32.01113129 C-18.6004545 28.76175645 -18.59467043 25.51292051 -18.58421326 22.2635498 C-18.59226966 21.31811804 -18.60032607 20.37268627 -18.6086266 19.39860505 C-18.56422579 13.50994614 -17.87680566 8.9967787 -13.68156433 4.50263977 C-8.74480242 0.7274689 -6.09197914 -0.00158361 0 0 Z " fill="#FEF476" transform="translate(146.2167205810547,23.852828979492188)"/>
<path d="M0 0 C1.07636719 0.00322266 2.15273437 0.00644531 3.26171875 0.00976562 C4.38964844 0.01814453 5.51757812 0.02652344 6.6796875 0.03515625 C7.81535156 0.03966797 8.95101562 0.04417969 10.12109375 0.04882812 C12.93234388 0.0606401 15.7434898 0.07711118 18.5546875 0.09765625 C18.08782105 6.22537584 17.27993323 11.84039612 15.4921875 17.72265625 C15.12996094 18.93179687 14.76773438 20.1409375 14.39453125 21.38671875 C14.11738281 22.28132813 13.84023437 23.1759375 13.5546875 24.09765625 C10.53165455 24.26073695 7.51752044 24.3790203 4.4921875 24.47265625 C3.64462891 24.52292969 2.79707031 24.57320313 1.92382812 24.625 C-3.90654804 24.76006663 -6.91363259 23.71157652 -11.16577148 19.68994141 C-13.14329886 17.22906876 -13.46643267 14.94076354 -13.8828125 11.84765625 C-13.3013352 6.86356513 -11.07249652 4.42414108 -7.4453125 1.09765625 C-4.83580014 -0.20709993 -2.91829965 -0.01535947 0 0 Z " fill="#F5DEC0" transform="translate(221.4453125,343.90234375)"/>
<path d="M0 0 C10.56 0 21.12 0 32 0 C32 5.28 32 10.56 32 16 C28.14412638 16.16254268 24.29515026 16.28118338 20.4375 16.375 C18.80844727 16.45041016 18.80844727 16.45041016 17.14648438 16.52734375 C11.81228015 16.62462407 8.01518546 16.66007948 3.78515625 13.1640625 C1.62171045 11.03011673 0.9897105 9.96913151 0 7 C0 4.69 0 2.38 0 0 Z " fill="#EBCCA7" transform="translate(208,312)"/>
<path d="M0 0 C0.33 0 0.66 0 1 0 C1 82.17 1 164.34 1 249 C0.67 249 0.34 249 0 249 C0 170.13 0 91.26 0 10 C-0.99 10 -1.98 10 -3 10 C-3 9.34 -3 8.68 -3 8 C-2.34 8 -1.68 8 -1 8 C-1.33 7.01 -1.66 6.02 -2 5 C-1.0625 2.3125 -1.0625 2.3125 0 0 Z " fill="#F3D663" transform="translate(335,35)"/>
<path d="M0 0 C-0.61875 0.0825 -1.2375 0.165 -1.875 0.25 C-4.15723303 0.78648121 -4.15723303 0.78648121 -5 2.875 C-5.33 3.57625 -5.66 4.2775 -6 5 C-6.70125 5.495 -7.4025 5.99 -8.125 6.5 C-8.74375 6.995 -9.3625 7.49 -10 8 C-10 9.32 -10 10.64 -10 12 C-4.41944944 14.3111371 0.92685832 14.4315645 6.875 14.625 C8.33679688 14.68300781 8.33679688 14.68300781 9.828125 14.7421875 C12.2185672 14.83593033 14.60901244 14.9216383 17 15 C16.34 17.64 15.68 20.28 15 23 C11.97696705 23.1630807 8.96283294 23.28136405 5.9375 23.375 C5.08994141 23.42527344 4.24238281 23.47554688 3.36914062 23.52734375 C-2.46123554 23.66241038 -5.46832009 22.61392027 -9.72045898 18.59228516 C-11.69798636 16.13141251 -12.02112017 13.84310729 -12.4375 10.75 C-11.8560227 5.76590888 -9.62718402 3.32648483 -6 0 C-3.50907189 -1.24546405 -2.58919267 -0.7767578 0 0 Z " fill="#EACDA7" transform="translate(220,345)"/>
<path d="M0 0 C10.23 0 20.46 0 31 0 C31 2.64 31 5.28 31 8 C26.58345745 8.08706286 22.16713543 8.14041378 17.75 8.1875 C16.49574219 8.21263672 15.24148437 8.23777344 13.94921875 8.26367188 C12.74394531 8.27333984 11.53867188 8.28300781 10.296875 8.29296875 C9.18666992 8.3086792 8.07646484 8.32438965 6.93261719 8.34057617 C3.62338559 7.95626231 2.22167325 7.48131865 0 5 C0 3.35 0 1.7 0 0 Z " fill="#F8E0C0" transform="translate(209,312)"/>
<path d="M0 0 C-0.020625 0.886875 -0.04125 1.77375 -0.0625 2.6875 C-0.00713781 5.62169631 0.3305734 8.15493696 1 11 C1.66 11 2.32 11 3 11 C3 24.86 3 38.72 3 53 C8.61 53 14.22 53 20 53 C20.33 52.01 20.66 51.02 21 50 C22.485 49.505 22.485 49.505 24 49 C24.495 48.484375 24.99 47.96875 25.5 47.4375 C27 46 27 46 30 46 C30.33 44.68 30.66 43.36 31 42 C31.66 42.99 32.32 43.98 33 45 C32.11687962 46.13500694 31.21781145 47.25761307 30.3125 48.375 C29.81363281 49.00148438 29.31476563 49.62796875 28.80078125 50.2734375 C23.91280452 54.95995748 18.03546935 54.24164113 11.6875 54.125 C10.75615234 54.11597656 9.82480469 54.10695313 8.86523438 54.09765625 C6.5765564 54.07418263 4.28841328 54.04134729 2 54 C1.9906543 52.87094238 1.98130859 51.74188477 1.97167969 50.57861328 C1.93149108 46.3475958 1.86565536 42.11728359 1.79248047 37.88671875 C1.76443698 36.06356946 1.74314064 34.24030234 1.72900391 32.41699219 C1.79806157 18.19618964 1.79806157 18.19618964 -3 5 C-3.5775 3.96875 -4.155 2.9375 -4.75 1.875 C-5.1625 1.25625 -5.575 0.6375 -6 0 C-3.50907189 -1.24546405 -2.58919267 -0.7767578 0 0 Z " fill="#F3D764" transform="translate(302,242)"/>
<path d="M0 0 C1.14626322 0.97866338 2.29199788 1.95794587 3.4375 2.9375 C4.07558594 3.48277344 4.71367187 4.02804688 5.37109375 4.58984375 C6.26991149 5.36795695 7.15936528 6.15936528 8 7 C8.04080783 8.99958364 8.04254356 11.00045254 8 13 C7.34 12.67 6.68 12.34 6 12 C6 11.01 6 10.02 6 9 C3.85937521 9.90437769 3.85937521 9.90437769 2 12 C1.58591619 15.03553377 1.41882954 17.72239012 1.42578125 20.76171875 C1.41161667 21.62634232 1.39745209 22.49096588 1.38285828 23.38179016 C1.34090765 26.15048505 1.32572794 28.91853209 1.3125 31.6875 C1.2833105 34.43830887 1.24854638 37.18895832 1.21000671 39.93965149 C1.18778325 41.65034297 1.17180561 43.3611312 1.16316223 45.07194519 C1.11818838 50.12617578 0.88115223 55.01544622 0 60 C-0.99 60.495 -0.99 60.495 -2 61 C-2.86915003 58.04488991 -3.17643833 56.45645601 -2.04931641 53.54052734 C-0.56144159 48.520248 -0.64257995 43.68771741 -0.5859375 38.4765625 C-0.56657135 37.37524994 -0.5472052 36.27393738 -0.5272522 35.13925171 C-0.46765072 31.63457901 -0.42114838 28.12987312 -0.375 24.625 C-0.33680238 22.24347555 -0.29774961 19.86196466 -0.2578125 17.48046875 C-0.16196512 11.65376646 -0.07686099 5.82698201 0 0 Z " fill="#E2CCA8" transform="translate(352,236)"/>
<path d="M0 0 C0.66 0.99 1.32 1.98 2 3 C-4.22506128 11.00059422 -4.22506128 11.00059422 -9 12 C-12.00877271 12.13722443 -14.99102323 12.11799909 -18 12 C-18 11.67 -18 11.34 -18 11 C-15.69 11 -13.38 11 -11 11 C-10.67 10.01 -10.34 9.02 -10 8 C-9.01 7.67 -8.02 7.34 -7 7 C-6.505 6.484375 -6.01 5.96875 -5.5 5.4375 C-4 4 -4 4 -1 4 C-0.67 2.68 -0.34 1.36 0 0 Z " fill="#E2CA53" transform="translate(333,284)"/>
<path d="M0 0 C1.32 0.33 2.64 0.66 4 1 C2.75146327 1.79397239 1.50109957 2.58507217 0.25 3.375 C-0.44609375 3.81585938 -1.1421875 4.25671875 -1.859375 4.7109375 C-4 6 -4 6 -6.19921875 7.0390625 C-8.53344516 8.28465837 -8.89772291 9.64847553 -10 12 C-10.99 12.66 -11.98 13.32 -13 14 C-12.67 12.35 -12.34 10.7 -12 9 C-11.34 9 -10.68 9 -10 9 C-9.67 7.68 -9.34 6.36 -9 5 C-7.35 4.67 -5.7 4.34 -4 4 C-4 3.34 -4 2.68 -4 2 C-2.68 2 -1.36 2 0 2 C0 1.34 0 0.68 0 0 Z " fill="#FADE53" transform="translate(160,40)"/>
<path d="M0 0 C0.66 0.66 1.32 1.32 2 2 C-0.93720508 3.52299523 -3.9168649 4.80100302 -7 6 C-7 6.66 -7 7.32 -7 8 C-9.97 7.505 -9.97 7.505 -13 7 C-4.61363636 0.47727273 -4.61363636 0.47727273 0 0 Z " fill="#DBC39F" transform="translate(343,304)"/>
<path d="M0 0 C-0.020625 0.886875 -0.04125 1.77375 -0.0625 2.6875 C-0.00713781 5.62169631 0.3305734 8.15493696 1 11 C1.66 11 2.32 11 3 11 C2.67 12.32 2.34 13.64 2 15 C0.45790811 12.68686216 -0.78288475 10.53951971 -2 8.0625 C-2.33 7.39347656 -2.66 6.72445312 -3 6.03515625 C-3.33 5.36355469 -3.66 4.69195312 -4 4 C-4.66574186 2.66620467 -5.33214099 1.3327365 -6 0 C-3.50907189 -1.24546405 -2.58919267 -0.7767578 0 0 Z " fill="#EFD257" transform="translate(302,242)"/>
<path d="M0 0 C2 2 2 2 2.1875 5.75 C2.1047681 9.23746762 1.68505673 12.57471633 1 16 C0.34 15.67 -0.32 15.34 -1 15 C-1.02685412 12.68756208 -1.04632841 10.3750373 -1.0625 8.0625 C-1.07410156 6.77472656 -1.08570313 5.48695313 -1.09765625 4.16015625 C-1 1 -1 1 0 0 Z " fill="#CDC5C0" transform="translate(250,374)"/>
<path d="M0 0 C1.65 0 3.3 0 5 0 C5.33 0.99 5.66 1.98 6 3 C7.29355827 4.37195574 8.62298702 5.71182656 10 7 C8.203125 7.67578125 8.203125 7.67578125 6 8 C4.296875 6.85546875 4.296875 6.85546875 2.75 5.1875 C2.22921875 4.64480469 1.7084375 4.10210937 1.171875 3.54296875 C0 2 0 2 0 0 Z " fill="#F5E8D9" transform="translate(265,420)"/>
<path d="M0 0 C0.53625 0.268125 1.0725 0.53625 1.625 0.8125 C1.00625 0.895 0.3875 0.9775 -0.25 1.0625 C-2.53650356 1.59285516 -2.53650356 1.59285516 -3.3125 3.6875 C-4.73344081 6.52938163 -6.61619033 7.36049491 -9.375 8.8125 C-9.12158809 5.39143924 -8.06717816 4.50467816 -5.5625 2 C-2.375 -0.1875 -2.375 -0.1875 0 0 Z " fill="#DFD2BB" transform="translate(218.375,344.1875)"/>
<path d="M0 0 C0.33 0 0.66 0 1 0 C1.1546875 1.175625 1.1546875 1.175625 1.3125 2.375 C1.77595022 5.33045181 1.77595022 5.33045181 5 7 C5.1875 10.125 5.1875 10.125 5 13 C1.125 10.375 1.125 10.375 0 7 C-0.03954234 4.66700175 -0.04401732 2.33291811 0 0 Z " fill="#D4C6A4" transform="translate(208,312)"/>
<path d="M0 0 C1.65 0 3.3 0 5 0 C4.6875 1.875 4.6875 1.875 4 4 C1 6 1 6 -2 6 C-1.34 4.02 -0.68 2.04 0 0 Z " fill="#F1E7D3" transform="translate(263,250)"/>
<path d="M0 0 C0.66 0 1.32 0 2 0 C2.08333357 4.8333472 1.95261487 9.23692563 1 14 C0.34 13.67 -0.32 13.34 -1 13 C-1.02696365 11.20841511 -1.04637917 9.41671527 -1.0625 7.625 C-1.07410156 6.62726563 -1.08570313 5.62953125 -1.09765625 4.6015625 C-1 2 -1 2 0 0 Z " fill="#D2C5B1" transform="translate(381,378)"/>
<path d="M0 0 C0 0.66 0 1.32 0 2 C-1.6396875 2.86625 -1.6396875 2.86625 -3.3125 3.75 C-6.29669132 5.44144447 -8.18944814 7.01791458 -10 10 C-10.99 9.67 -11.98 9.34 -13 9 C-4.5 0 -4.5 0 0 0 Z " fill="#271A04" transform="translate(261,234)"/>
<path d="M0 0 C3.3 0 6.6 0 10 0 C10 0.33 10 0.66 10 1 C9.071875 1.268125 8.14375 1.53625 7.1875 1.8125 C4.23759634 2.91148371 2.94384814 3.62418561 1 6 C0.67 5.67 0.34 5.34 0 5 C0 3.35 0 1.7 0 0 Z " fill="#ECE2C0" transform="translate(209,312)"/>
<path d="M0 0 C0.66 1.32 1.32 2.64 2 4 C0.375 4.6875 0.375 4.6875 -2 5 C-5.25 3.5625 -5.25 3.5625 -8 2 C-8 1.67 -8 1.34 -8 1 C-6.865625 1.020625 -5.73125 1.04125 -4.5625 1.0625 C-1.18424326 1.41577477 -1.18424326 1.41577477 0 0 Z " fill="#FEE95F" transform="translate(332,39)"/>
<path d="M0 0 C0.66 0.99 1.32 1.98 2 3 C0.75 5 0.75 5 -1 7 C-2.32 7 -3.64 7 -5 7 C-5.33 7.66 -5.66 8.32 -6 9 C-6 6 -6 6 -4 4 C-3.01 4 -2.02 4 -1 4 C-0.67 2.68 -0.34 1.36 0 0 Z " fill="#F0D34E" transform="translate(333,284)"/>
<path d="M0 0 C1.46726798 3.81489674 0.43336419 6.29011622 -1 10 C-1.99 9.34 -2.98 8.68 -4 8 C-2.66666667 5.33333333 -1.33333333 2.66666667 0 0 Z " fill="#D3BC9E" transform="translate(348,294)"/>
<path d="M0 0 C0.33 0 0.66 0 1 0 C1 3.3 1 6.6 1 10 C-0.32 10 -1.64 10 -3 10 C-3 9.34 -3 8.68 -3 8 C-2.34 8 -1.68 8 -1 8 C-1.33 7.01 -1.66 6.02 -2 5 C-1.0625 2.3125 -1.0625 2.3125 0 0 Z " fill="#EEE06A" transform="translate(335,35)"/>
<path d="M0 0 C0.33 0 0.66 0 1 0 C1.103125 0.763125 1.20625 1.52625 1.3125 2.3125 C2.04364039 5.17059424 2.76951913 6.15742885 5 8 C4.67 8.66 4.34 9.32 4 10 C3.01 10 2.02 10 1 10 C-0.1577506 6.52674819 -0.06866652 3.63932552 0 0 Z " fill="#D5BFA0" transform="translate(208,352)"/>
<path d="M0 0 C1.67542976 0.28604898 3.34385343 0.61781233 5 1 C0.25 5 0.25 5 -2 5 C-1.125 1.125 -1.125 1.125 0 0 Z " fill="#F3D356" transform="translate(256,232)"/>
<path d="M0 0 C2.72426311 2.35277269 3.8141763 4.62496331 5 8 C3.02 7.01 1.04 6.02 -1 5 C-0.67 3.35 -0.34 1.7 0 0 Z " fill="#DECFB9" transform="translate(373,258)"/>
<path d="M0 0 C1.98 0 3.96 0 6 0 C3.38485683 2.12038635 0.80362384 4.13091744 -2 6 C-2.33 5.34 -2.66 4.68 -3 4 C-2.34 4 -1.68 4 -1 4 C-0.67 2.68 -0.34 1.36 0 0 Z " fill="#171001" transform="translate(133,24)"/>
</svg>
